<svg preserveAspectRatio="none" width="100%" height="100%" overflow="visible" style="display: block;" viewBox="0 0 31.584 11.496" fill="none" xmlns="http://www.w3.org/2000/svg">
<g id="Clip path group">
<mask id="mask0_167_22" style="mask-type:luminance" maskUnits="userSpaceOnUse" x="0" y="0" width="32" height="12">
<path id="Vector" fill-rule="evenodd" clip-rule="evenodd" d="M0 0H31.584V11.496H0V0Z" fill="var(--fill-0, white)"/>
</mask>
<g mask="url(#mask0_167_22)">
<g id="Group">
<path id="Vector_2" d="M-0.000953481 0.000912219H31.5866V11.5004H-0.000953481V0.000912219Z" fill="var(--fill-0, white)"/>
<path id="Vector_3" d="M0.713602 -0.101117H1.32591V0.102986H0.713602V-0.101117ZM1.42796 -0.101117H2.04027V0.102986H1.42796V-0.101117ZM2.14232 -0.101117H2.75462V0.102986H2.14232V-0.101117ZM2.85668 -0.101117H3.46898V0.102986H2.85668V-0.101117ZM3.57103 -0.101117H4.18334V0.102986H3.57103V-0.101117ZM4.28539 -0.101117H4.8977V0.102986H4.28539V-0.101117ZM4.99975 -0.101117H5.61206V0.102986H4.99975V-0.101117ZM5.71411 -0.101117H6.32641V0.102986H5.71411V-0.101117ZM6.42846 -0.101117H7.04077V0.102986H6.42846V-0.101117ZM7.14282 -0.101117H7.75513V0.102986H7.14282V-0.101117ZM7.85718 -0.101117H8.46949V0.102986H7.85718V-0.101117ZM8.57154 -0.101117H9.18384V0.102986H8.57154V-0.101117ZM9.2859 -0.101117H9.8982V0.102986H9.2859V-0.101117ZM10.0003 -0.101117H10.6126V0.102986H10.0003V-0.101117ZM10.7146 -0.101117H11.3269V0.102986H10.7146V-0.101117ZM11.429 -0.101117H12.0413V0.102986H11.429V-0.101117ZM12.1433 -0.101117H12.7556V0.102986H12.1433V-0.101117ZM12.8577 -0.101117H13.47V0.102986H12.8577V-0.101117ZM13.572 -0.101117H14.1843V0.102986H13.572V-0.101117ZM14.2864 -0.101117H14.8987V0.102986H14.2864V-0.101117ZM15.0008 -0.101117H15.6131V0.102986H15.0008V-0.101117ZM15.7151 -0.101117H16.3274V0.102986H15.7151V-0.101117ZM16.4295 -0.101117H17.0418V0.102986H16.4295V-0.101117ZM17.1438 -0.101117H17.7561V0.102986H17.1438V-0.101117ZM17.8582 -0.101117H18.4705V0.102986H17.8582V-0.101117ZM18.5725 -0.101117H19.1849V0.102986H18.5725V-0.101117ZM19.2869 -0.101117H19.8992V0.102986H19.2869V-0.101117ZM20.0013 -0.101117H20.6136V0.102986H20.0013V-0.101117ZM20.7156 -0.101117H21.3279V0.102986H20.7156V-0.101117ZM21.43 -0.101117H22.0423V0.102986H21.43V-0.101117ZM22.1443 -0.101117H22.7566V0.102986H22.1443V-0.101117ZM22.8587 -0.101117H23.471V0.102986H22.8587V-0.101117ZM23.5731 -0.101117H24.1854V0.102986H23.5731V-0.101117ZM24.2874 -0.101117H24.8997V0.102986H24.2874V-0.101117ZM25.0018 -0.101117H25.6141V0.102986H25.0018V-0.101117ZM25.7161 -0.101117H26.3284V0.102986H25.7161V-0.101117ZM26.4305 -0.101117H27.0428V0.102986H26.4305V-0.101117ZM27.1448 -0.101117H27.7571V0.102986H27.1448V-0.101117ZM27.8592 -0.101117H28.4715V0.102986H27.8592V-0.101117ZM28.5736 -0.101117H29.1859V0.102986H28.5736V-0.101117ZM29.2879 -0.101117H29.9002V0.102986H29.2879V-0.101117ZM30.0023 -0.101117H30.6146V0.102986H30.0023V-0.101117ZM30.7166 -0.101117H31.3289V0.102986H30.7166V-0.101117ZM31.431 -0.101117H31.6883V0.457944H31.4842V0.000934507H31.5863V0.102986H31.431V-0.101117ZM31.6883 0.559993V1.1723H31.4842V0.559993H31.6883ZM31.6883 1.27435V1.88666H31.4842V1.27435H31.6883ZM31.6883 1.98871V2.60102H31.4842V1.98871H31.6883ZM31.6883 2.70307V3.31538H31.4842V2.70307H31.6883ZM31.6883 3.41742V4.02973H31.4842V3.41742H31.6883ZM31.6883 4.13178V4.74409H31.4842V4.13178H31.6883ZM31.6883 4.84614V5.45845H31.4842V4.84614H31.6883ZM31.6883 5.5605V6.17281H31.4842V5.5605H31.6883ZM31.6883 6.27486V6.88716H31.4842V6.27486H31.6883ZM31.6883 6.98921V7.60152H31.4842V6.98921H31.6883ZM31.6883 7.70357V8.31588H31.4842V7.70357H31.6883ZM31.6883 8.41793V9.03024H31.4842V8.41793H31.6883ZM31.6883 9.13229V9.7446H31.4842V9.13229H31.6883ZM31.6883 9.84665V10.459H31.4842V9.84665H31.6883ZM31.6883 10.561V11.1733H31.4842V10.561H31.6883ZM31.6883 11.2754V11.603H31.1995V11.3989H31.5863V11.5009H31.4842V11.2754H31.6883ZM31.0975 11.603H30.4852V11.3989H31.0975V11.603ZM30.3831 11.603H29.7708V11.3989H30.3831V11.603ZM29.6688 11.603H29.0565V11.3989H29.6688V11.603ZM28.9544 11.603H28.3421V11.3989H28.9544V11.603ZM28.24 11.603H27.6277V11.3989H28.24V11.603ZM27.5257 11.603H26.9134V11.3989H27.5257V11.603ZM26.8113 11.603H26.199V11.3989H26.8113V11.603ZM26.097 11.603H25.4847V11.3989H26.097V11.603ZM25.3826 11.603H24.7703V11.3989H25.3826V11.603ZM24.6683 11.603H24.056V11.3989H24.6683V11.603ZM23.9539 11.603H23.3416V11.3989H23.9539V11.603ZM23.2395 11.603H22.6272V11.3989H23.2395V11.603ZM22.5252 11.603H21.9129V11.3989H22.5252V11.603ZM21.8108 11.603H21.1985V11.3989H21.8108V11.603ZM21.0965 11.603H20.4842V11.3989H21.0965V11.603ZM20.3821 11.603H19.7698V11.3989H20.3821V11.603ZM19.6678 11.603H19.0554V11.3989H19.6678V11.603ZM18.9534 11.603H18.3411V11.3989H18.9534V11.603ZM18.239 11.603H17.6267V11.3989H18.239V11.603ZM17.5247 11.603H16.9124V11.3989H17.5247V11.603ZM16.8103 11.603H16.198V11.3989H16.8103V11.603ZM16.096 11.603H15.4837V11.3989H16.096V11.603ZM15.3816 11.603H14.7693V11.3989H15.3816V11.603ZM14.6672 11.603H14.0549V11.3989H14.6672V11.603ZM13.9529 11.603H13.3406V11.3989H13.9529V11.603ZM13.2385 11.603H12.6262V11.3989H13.2385V11.603ZM12.5242 11.603H11.9119V11.3989H12.5242V11.603ZM11.8098 11.603H11.1975V11.3989H11.8098V11.603ZM11.0955 11.603H10.4832V11.3989H11.0955V11.603ZM10.3811 11.603H9.7688V11.3989H10.3811V11.603ZM9.66674 11.603H9.05444V11.3989H9.66674V11.603ZM8.95238 11.603H8.34008V11.3989H8.95238V11.603ZM8.23803 11.603H7.62572V11.3989H8.23803V11.603ZM7.52367 11.603H6.91136V11.3989H7.52367V11.603ZM6.80932 11.603H6.19701V11.3989H6.80932V11.603ZM6.09496 11.603H5.48265V11.3989H6.09496V11.603ZM5.3806 11.603H4.76829V11.3989H5.3806V11.603ZM4.66624 11.603H4.05393V11.3989H4.66624V11.603ZM3.95188 11.603H3.33957V11.3989H3.95188V11.603ZM3.23753 11.603H2.62522V11.3989H3.23753V11.603ZM2.52317 11.603H1.91086V11.3989H2.52317V11.603ZM1.80881 11.603H1.19651V11.3989H1.80881V11.603ZM1.09445 11.603H0.482145V11.3989H1.09445V11.603ZM0.380093 11.603H-0.102807V11.2695H0.101296V11.5009H-0.000755434V11.3989H0.380093V11.603ZM-0.102807 11.1674V10.5551H0.101296V11.1674H-0.102807ZM-0.102807 10.453V9.84074H0.101296V10.453H-0.102807ZM-0.102807 9.73869V9.12638H0.101296V9.73869H-0.102807ZM-0.102807 9.02433V8.41203H0.101296V9.02433H-0.102807ZM-0.102807 8.30997V7.69767H0.101296V8.30997H-0.102807ZM-0.102807 7.59561V6.98331H0.101296V7.59561H-0.102807ZM-0.102807 6.88126V6.26895H0.101296V6.88126H-0.102807ZM-0.102807 6.1669V5.55459H0.101296V6.1669H-0.102807ZM-0.102807 5.45255V4.84024H0.101296V5.45255H-0.102807ZM-0.102807 4.73819V4.12588H0.101296V4.73819H-0.102807ZM-0.102807 4.02383V3.41152H0.101296V4.02383H-0.102807ZM-0.102807 3.30947V2.69716H0.101296V3.30947H-0.102807ZM-0.102807 2.59511V1.9828H0.101296V2.59511H-0.102807ZM-0.102807 1.88076V1.26845H0.101296V1.88076H-0.102807ZM-0.102807 1.1664V0.554089H0.101296V1.1664H-0.102807ZM-0.102807 0.452036V-0.101117H0.611551V0.102986H-0.000755434V0.000934507H0.101296V0.452036H-0.102807Z" fill="var(--fill-0, #F6D02B)"/>
</g>
</g>
</g>
</svg>
