<svg preserveAspectRatio="none" width="100%" height="100%" overflow="visible" style="display: block;" viewBox="0 0 44.9897 11.088" fill="none" xmlns="http://www.w3.org/2000/svg">
<g id="Clip path group">
<mask id="mask0_346_87" style="mask-type:luminance" maskUnits="userSpaceOnUse" x="0" y="0" width="45" height="12">
<path id="Vector" fill-rule="evenodd" clip-rule="evenodd" d="M0 0H44.9897V11.088H0V0Z" fill="var(--fill-0, white)"/>
</mask>
<g mask="url(#mask0_346_87)">
<path id="Vector_2" d="M-0.0109863 -0.000976562H44.9979V11.0909H-0.0109863V-0.000976562Z" fill="var(--fill-0, white)"/>
<path id="Vector_3" d="M1.32771 -0.187988H2.47511V0.186199H1.32771V-0.187988ZM2.66634 -0.187988H3.81374V0.186199H2.66634V-0.187988ZM4.00497 -0.187988H5.15237V0.186199H4.00497V-0.187988ZM5.3436 -0.187988H6.491V0.186199H5.3436V-0.187988ZM6.68223 -0.187988H7.82963V0.186199H6.68223V-0.187988ZM8.02086 -0.187988H9.16825V0.186199H8.02086V-0.187988ZM9.35949 -0.187988H10.5069V0.186199H9.35949V-0.187988ZM10.6981 -0.187988H11.8455V0.186199H10.6981V-0.187988ZM12.0367 -0.187988H13.1841V0.186199H12.0367V-0.187988ZM13.3754 -0.187988H14.5228V0.186199H13.3754V-0.187988ZM14.714 -0.187988H15.8614V0.186199H14.714V-0.187988ZM16.0526 -0.187988H17.2V0.186199H16.0526V-0.187988ZM17.3913 -0.187988H18.5387V0.186199H17.3913V-0.187988ZM18.7299 -0.187988H19.8773V0.186199H18.7299V-0.187988ZM20.0685 -0.187988H21.2159V0.186199H20.0685V-0.187988ZM21.4071 -0.187988H22.5545V0.186199H21.4071V-0.187988ZM22.7458 -0.187988H23.8932V0.186199H22.7458V-0.187988ZM24.0844 -0.187988H25.2318V0.186199H24.0844V-0.187988ZM25.423 -0.187988H26.5704V0.186199H25.423V-0.187988ZM26.7617 -0.187988H27.9091V0.186199H26.7617V-0.187988ZM28.1003 -0.187988H29.2477V0.186199H28.1003V-0.187988ZM29.4389 -0.187988H30.5863V0.186199H29.4389V-0.187988ZM30.7775 -0.187988H31.9249V0.186199H30.7775V-0.187988ZM32.1162 -0.187988H33.2636V0.186199H32.1162V-0.187988ZM33.4548 -0.187988H34.6022V0.186199H33.4548V-0.187988ZM34.7934 -0.187988H35.9408V0.186199H34.7934V-0.187988ZM36.1321 -0.187988H37.2795V0.186199H36.1321V-0.187988ZM37.4707 -0.187988H38.6181V0.186199H37.4707V-0.187988ZM38.8093 -0.187988H39.9567V0.186199H38.8093V-0.187988ZM40.148 -0.187988H41.2953V0.186199H40.148V-0.187988ZM41.4866 -0.187988H42.634V0.186199H41.4866V-0.187988ZM42.8252 -0.187988H43.9726V0.186199H42.8252V-0.187988ZM44.1638 -0.187988H45.1913V0.303561H44.8088V-0.000894579H45V0.186199H44.1638V-0.187988ZM45.1913 0.490656V1.61322H44.8088V0.490656H45.1913ZM45.1913 1.80031V2.92287H44.8088V1.80031H45.1913ZM45.1913 3.10997V4.23253H44.8088V3.10997H45.1913ZM45.1913 4.41962V5.54218H44.8088V4.41962H45.1913ZM45.1913 5.72928V6.85184H44.8088V5.72928H45.1913ZM45.1913 7.03893V8.1615H44.8088V7.03893H45.1913ZM45.1913 8.34859V9.47115H44.8088V8.34859H45.1913ZM45.1913 9.65824V10.7808H44.8088V9.65824H45.1913ZM45.1913 10.9679V11.278H43.9784V10.9038H45V11.0909H44.8088V10.9679H45.1913ZM43.7871 11.278H42.6397V10.9038H43.7871V11.278ZM42.4485 11.278H41.3011V10.9038H42.4485V11.278ZM41.1099 11.278H39.9625V10.9038H41.1099V11.278ZM39.7712 11.278H38.6238V10.9038H39.7712V11.278ZM38.4326 11.278H37.2852V10.9038H38.4326V11.278ZM37.094 11.278H35.9466V10.9038H37.094V11.278ZM35.7554 11.278H34.608V10.9038H35.7554V11.278ZM34.4167 11.278H33.2693V10.9038H34.4167V11.278ZM33.0781 11.278H31.9307V10.9038H33.0781V11.278ZM31.7395 11.278H30.5921V10.9038H31.7395V11.278ZM30.4008 11.278H29.2534V10.9038H30.4008V11.278ZM29.0622 11.278H27.9148V10.9038H29.0622V11.278ZM27.7236 11.278H26.5762V10.9038H27.7236V11.278ZM26.385 11.278H25.2376V10.9038H26.385V11.278ZM25.0463 11.278H23.8989V10.9038H25.0463V11.278ZM23.7077 11.278H22.5603V10.9038H23.7077V11.278ZM22.3691 11.278H21.2217V10.9038H22.3691V11.278ZM21.0304 11.278H19.883V10.9038H21.0304V11.278ZM19.6918 11.278H18.5444V10.9038H19.6918V11.278ZM18.3532 11.278H17.2058V10.9038H18.3532V11.278ZM17.0146 11.278H15.8672V10.9038H17.0146V11.278ZM15.6759 11.278H14.5285V10.9038H15.6759V11.278ZM14.3373 11.278H13.1899V10.9038H14.3373V11.278ZM12.9987 11.278H11.8513V10.9038H12.9987V11.278ZM11.66 11.278H10.5126V10.9038H11.66V11.278ZM10.3214 11.278H9.17401V10.9038H10.3214V11.278ZM8.98278 11.278H7.83539V10.9038H8.98278V11.278ZM7.64415 11.278H6.49675V10.9038H7.64415V11.278ZM6.30552 11.278H5.15813V10.9038H6.30552V11.278ZM4.9669 11.278H3.8195V10.9038H4.9669V11.278ZM3.62826 11.278H2.48087V10.9038H3.62826V11.278ZM2.28963 11.278H1.14224V10.9038H2.28963V11.278ZM0.951008 11.278H-0.202148V10.9094H0.180317V11.0909H-0.0109157V10.9038H0.951008V11.278ZM-0.202148 10.7223V9.59978H0.180317V10.7223H-0.202148ZM-0.202148 9.41269V8.29013H0.180317V9.41269H-0.202148ZM-0.202148 8.10304V6.98047H0.180317V8.10304H-0.202148ZM-0.202148 6.79338V5.67082H0.180317V6.79338H-0.202148ZM-0.202148 5.48373V4.36116H0.180317V5.48373H-0.202148ZM-0.202148 4.17407V3.0515H0.180317V4.17407H-0.202148ZM-0.202148 2.86441V1.74185H0.180317V2.86441H-0.202148ZM-0.202148 1.55476V0.4322H0.180317V1.55476H-0.202148ZM-0.202148 0.245098V-0.187988H1.13648V0.186199H-0.0109157V-0.000894579H0.180317V0.245098H-0.202148Z" fill="var(--fill-0, #25638F)"/>
</g>
</g>
</svg>
