<svg preserveAspectRatio="none" width="100%" height="100%" overflow="visible" style="display: block;" viewBox="0 0 45.84 35.064" fill="none" xmlns="http://www.w3.org/2000/svg">
<g id="Clip path group">
<mask id="mask0_167_680" style="mask-type:luminance" maskUnits="userSpaceOnUse" x="0" y="0" width="46" height="36">
<path id="Vector" fill-rule="evenodd" clip-rule="evenodd" d="M0 1.13249e-06H45.84V35.064H0V1.13249e-06Z" fill="var(--fill-0, white)"/>
</mask>
<g mask="url(#mask0_167_680)">
<g id="Group">
<path id="Vector_2" d="M-0.0109984 -0.00636739H45.832V35.0732H-0.0109984V-0.00636739Z" fill="var(--fill-0, white)"/>
<path id="Vector_3" d="M0.703344 -0.108413H1.31565V0.0956895H0.703344V-0.108413ZM1.4177 -0.108413H2.03001V0.0956895H1.4177V-0.108413ZM2.13206 -0.108413H2.74437V0.0956895H2.13206V-0.108413ZM2.84642 -0.108413H3.45872V0.0956895H2.84642V-0.108413ZM3.56078 -0.108413H4.17308V0.0956895H3.56078V-0.108413ZM4.27513 -0.108413H4.88744V0.0956895H4.27513V-0.108413ZM4.98949 -0.108413H5.6018V0.0956895H4.98949V-0.108413ZM5.70385 -0.108413H6.31616V0.0956895H5.70385V-0.108413ZM6.41821 -0.108413H7.03051V0.0956895H6.41821V-0.108413ZM7.13256 -0.108413H7.74487V0.0956895H7.13256V-0.108413ZM7.84692 -0.108413H8.45923V0.0956895H7.84692V-0.108413ZM8.56128 -0.108413H9.17359V0.0956895H8.56128V-0.108413ZM9.27564 -0.108413H9.88794V0.0956895H9.27564V-0.108413ZM9.99 -0.108413H10.6023V0.0956895H9.99V-0.108413ZM10.7044 -0.108413H11.3167V0.0956895H10.7044V-0.108413ZM11.4187 -0.108413H12.031V0.0956895H11.4187V-0.108413ZM12.1331 -0.108413H12.7454V0.0956895H12.1331V-0.108413ZM12.8474 -0.108413H13.4597V0.0956895H12.8474V-0.108413ZM13.5618 -0.108413H14.1741V0.0956895H13.5618V-0.108413ZM14.2761 -0.108413H14.8884V0.0956895H14.2761V-0.108413ZM14.9905 -0.108413H15.6028V0.0956895H14.9905V-0.108413ZM15.7049 -0.108413H16.3172V0.0956895H15.7049V-0.108413ZM16.4192 -0.108413H17.0315V0.0956895H16.4192V-0.108413ZM17.1336 -0.108413H17.7459V0.0956895H17.1336V-0.108413ZM17.8479 -0.108413H18.4602V0.0956895H17.8479V-0.108413ZM18.5623 -0.108413H19.1746V0.0956895H18.5623V-0.108413ZM19.2766 -0.108413H19.889V0.0956895H19.2766V-0.108413ZM19.991 -0.108413H20.6033V0.0956895H19.991V-0.108413ZM20.7054 -0.108413H21.3177V0.0956895H20.7054V-0.108413ZM21.4197 -0.108413H22.032V0.0956895H21.4197V-0.108413ZM22.1341 -0.108413H22.7464V0.0956895H22.1341V-0.108413ZM22.8484 -0.108413H23.4607V0.0956895H22.8484V-0.108413ZM23.5628 -0.108413H24.1751V0.0956895H23.5628V-0.108413ZM24.2772 -0.108413H24.8895V0.0956895H24.2772V-0.108413ZM24.9915 -0.108413H25.6038V0.0956895H24.9915V-0.108413ZM25.7059 -0.108413H26.3182V0.0956895H25.7059V-0.108413ZM26.4202 -0.108413H27.0325V0.0956895H26.4202V-0.108413ZM27.1346 -0.108413H27.7469V0.0956895H27.1346V-0.108413ZM27.8489 -0.108413H28.4612V0.0956895H27.8489V-0.108413ZM28.5633 -0.108413H29.1756V0.0956895H28.5633V-0.108413ZM29.2777 -0.108413H29.89V0.0956895H29.2777V-0.108413ZM29.992 -0.108413H30.6043V0.0956895H29.992V-0.108413ZM30.7064 -0.108413H31.3187V0.0956895H30.7064V-0.108413ZM31.4207 -0.108413H32.033V0.0956895H31.4207V-0.108413ZM32.1351 -0.108413H32.7474V0.0956895H32.1351V-0.108413ZM32.8494 -0.108413H33.4618V0.0956895H32.8494V-0.108413ZM33.5638 -0.108413H34.1761V0.0956895H33.5638V-0.108413ZM34.2782 -0.108413H34.8905V0.0956895H34.2782V-0.108413ZM34.9925 -0.108413H35.6048V0.0956895H34.9925V-0.108413ZM35.7069 -0.108413H36.3192V0.0956895H35.7069V-0.108413ZM36.4212 -0.108413H37.0335V0.0956895H36.4212V-0.108413ZM37.1356 -0.108413H37.7479V0.0956895H37.1356V-0.108413ZM37.85 -0.108413H38.4623V0.0956895H37.85V-0.108413ZM38.5643 -0.108413H39.1766V0.0956895H38.5643V-0.108413ZM39.2787 -0.108413H39.891V0.0956895H39.2787V-0.108413ZM39.993 -0.108413H40.6053V0.0956895H39.993V-0.108413ZM40.7074 -0.108413H41.3197V0.0956895H40.7074V-0.108413ZM41.4217 -0.108413H42.034V0.0956895H41.4217V-0.108413ZM42.1361 -0.108413H42.7484V0.0956895H42.1361V-0.108413ZM42.8505 -0.108413H43.4628V0.0956895H42.8505V-0.108413ZM43.5648 -0.108413H44.1771V0.0956895H43.5648V-0.108413ZM44.2792 -0.108413H44.8915V0.0956895H44.2792V-0.108413ZM44.9935 -0.108413H45.6058V0.0956895H44.9935V-0.108413ZM45.7079 -0.108413H45.9479V0.468019H45.7438V-0.00636157H45.8458V0.0956895H45.7079V-0.108413ZM45.9479 0.570072V1.18238H45.7438V0.570072H45.9479ZM45.9479 1.28443V1.89674H45.7438V1.28443H45.9479ZM45.9479 1.99879V2.61109H45.7438V1.99879H45.9479ZM45.9479 2.71315V3.32545H45.7438V2.71315H45.9479ZM45.9479 3.4275V4.03981H45.7438V3.4275H45.9479ZM45.9479 4.14186V4.75417H45.7438V4.14186H45.9479ZM45.9479 4.85622V5.46852H45.7438V4.85622H45.9479ZM45.9479 5.57057V6.18288H45.7438V5.57057H45.9479ZM45.9479 6.28493V6.89724H45.7438V6.28493H45.9479ZM45.9479 6.99929V7.6116H45.7438V6.99929H45.9479ZM45.9479 7.71365V8.32596H45.7438V7.71365H45.9479ZM45.9479 8.42801V9.04031H45.7438V8.42801H45.9479ZM45.9479 9.14236V9.75467H45.7438V9.14236H45.9479ZM45.9479 9.85672V10.469H45.7438V9.85672H45.9479ZM45.9479 10.5711V11.1834H45.7438V10.5711H45.9479ZM45.9479 11.2854V11.8977H45.7438V11.2854H45.9479ZM45.9479 11.9998V12.6121H45.7438V11.9998H45.9479ZM45.9479 12.7142V13.3265H45.7438V12.7142H45.9479ZM45.9479 13.4285V14.0408H45.7438V13.4285H45.9479ZM45.9479 14.1429V14.7552H45.7438V14.1429H45.9479ZM45.9479 14.8572V15.4695H45.7438V14.8572H45.9479ZM45.9479 15.5716V16.1839H45.7438V15.5716H45.9479ZM45.9479 16.2859V16.8982H45.7438V16.2859H45.9479ZM45.9479 17.0003V17.6126H45.7438V17.0003H45.9479ZM45.9479 17.7147V18.327H45.7438V17.7147H45.9479ZM45.9479 18.429V19.0413H45.7438V18.429H45.9479ZM45.9479 19.1434V19.7557H45.7438V19.1434H45.9479ZM45.9479 19.8577V20.47H45.7438V19.8577H45.9479ZM45.9479 20.5721V21.1844H45.7438V20.5721H45.9479ZM45.9479 21.2864V21.8988H45.7438V21.2864H45.9479ZM45.9479 22.0008V22.6131H45.7438V22.0008H45.9479ZM45.9479 22.7152V23.3275H45.7438V22.7152H45.9479ZM45.9479 23.4295V24.0418H45.7438V23.4295H45.9479ZM45.9479 24.1439V24.7562H45.7438V24.1439H45.9479ZM45.9479 24.8582V25.4705H45.7438V24.8582H45.9479ZM45.9479 25.5726V26.1849H45.7438V25.5726H45.9479ZM45.9479 26.287V26.8993H45.7438V26.287H45.9479ZM45.9479 27.0013V27.6136H45.7438V27.0013H45.9479ZM45.9479 27.7157V28.328H45.7438V27.7157H45.9479ZM45.9479 28.43V29.0423H45.7438V28.43H45.9479ZM45.9479 29.1444V29.7567H45.7438V29.1444H45.9479ZM45.9479 29.8587V30.471H45.7438V29.8587H45.9479ZM45.9479 30.5731V31.1854H45.7438V30.5731H45.9479ZM45.9479 31.2875V31.8998H45.7438V31.2875H45.9479ZM45.9479 32.0018V32.6141H45.7438V32.0018H45.9479ZM45.9479 32.7162V33.3285H45.7438V32.7162H45.9479ZM45.9479 33.4305V34.0428H45.7438V33.4305H45.9479ZM45.9479 34.1449V34.7572H45.7438V34.1449H45.9479ZM45.9479 34.8592V35.1752H45.4474V34.971H45.8458V35.0731H45.7438V34.8592H45.9479ZM45.3453 35.1752H44.733V34.971H45.3453V35.1752ZM44.6309 35.1752H44.0186V34.971H44.6309V35.1752ZM43.9166 35.1752H43.3043V34.971H43.9166V35.1752ZM43.2022 35.1752H42.5899V34.971H43.2022V35.1752ZM42.4879 35.1752H41.8756V34.971H42.4879V35.1752ZM41.7735 35.1752H41.1612V34.971H41.7735V35.1752ZM41.0592 35.1752H40.4468V34.971H41.0592V35.1752ZM40.3448 35.1752H39.7325V34.971H40.3448V35.1752ZM39.6304 35.1752H39.0181V34.971H39.6304V35.1752ZM38.9161 35.1752H38.3038V34.971H38.9161V35.1752ZM38.2017 35.1752H37.5894V34.971H38.2017V35.1752ZM37.4874 35.1752H36.8751V34.971H37.4874V35.1752ZM36.773 35.1752H36.1607V34.971H36.773V35.1752ZM36.0587 35.1752H35.4463V34.971H36.0587V35.1752ZM35.3443 35.1752H34.732V34.971H35.3443V35.1752ZM34.6299 35.1752H34.0176V34.971H34.6299V35.1752ZM33.9156 35.1752H33.3033V34.971H33.9156V35.1752ZM33.2012 35.1752H32.5889V34.971H33.2012V35.1752ZM32.4869 35.1752H31.8746V34.971H32.4869V35.1752ZM31.7725 35.1752H31.1602V34.971H31.7725V35.1752ZM31.0582 35.1752H30.4458V34.971H31.0582V35.1752ZM30.3438 35.1752H29.7315V34.971H30.3438V35.1752ZM29.6294 35.1752H29.0171V34.971H29.6294V35.1752ZM28.9151 35.1752H28.3028V34.971H28.9151V35.1752ZM28.2007 35.1752H27.5884V34.971H28.2007V35.1752ZM27.4864 35.1752H26.8741V34.971H27.4864V35.1752ZM26.772 35.1752H26.1597V34.971H26.772V35.1752ZM26.0576 35.1752H25.4453V34.971H26.0576V35.1752ZM25.3433 35.1752H24.731V34.971H25.3433V35.1752ZM24.6289 35.1752H24.0166V34.971H24.6289V35.1752ZM23.9146 35.1752H23.3023V34.971H23.9146V35.1752ZM23.2002 35.1752H22.5879V34.971H23.2002V35.1752ZM22.4859 35.1752H21.8736V34.971H22.4859V35.1752ZM21.7715 35.1752H21.1592V34.971H21.7715V35.1752ZM21.0571 35.1752H20.4448V34.971H21.0571V35.1752ZM20.3428 35.1752H19.7305V34.971H20.3428V35.1752ZM19.6284 35.1752H19.0161V34.971H19.6284V35.1752ZM18.9141 35.1752H18.3018V34.971H18.9141V35.1752ZM18.1997 35.1752H17.5874V34.971H18.1997V35.1752ZM17.4854 35.1752H16.873V34.971H17.4854V35.1752ZM16.771 35.1752H16.1587V34.971H16.771V35.1752ZM16.0566 35.1752H15.4443V34.971H16.0566V35.1752ZM15.3423 35.1752H14.73V34.971H15.3423V35.1752ZM14.6279 35.1752H14.0156V34.971H14.6279V35.1752ZM13.9136 35.1752H13.3013V34.971H13.9136V35.1752ZM13.1992 35.1752H12.5869V34.971H13.1992V35.1752ZM12.4848 35.1752H11.8725V34.971H12.4848V35.1752ZM11.7705 35.1752H11.1582V34.971H11.7705V35.1752ZM11.0561 35.1752H10.4438V34.971H11.0561V35.1752ZM10.3418 35.1752H9.72946V34.971H10.3418V35.1752ZM9.62742 35.1752H9.0151V34.971H9.62742V35.1752ZM8.91306 35.1752H8.30074V34.971H8.91306V35.1752ZM8.1987 35.1752H7.5864V34.971H8.1987V35.1752ZM7.48434 35.1752H6.87204V34.971H7.48434V35.1752ZM6.76998 35.1752H6.15768V34.971H6.76998V35.1752ZM6.05563 35.1752H5.44332V34.971H6.05563V35.1752ZM5.34127 35.1752H4.72896V34.971H5.34127V35.1752ZM4.62691 35.1752H4.01461V34.971H4.62691V35.1752ZM3.91255 35.1752H3.30025V34.971H3.91255V35.1752ZM3.19819 35.1752H2.58589V34.971H3.19819V35.1752ZM2.48384 35.1752H1.87153V34.971H2.48384V35.1752ZM1.76948 35.1752H1.15717V34.971H1.76948V35.1752ZM1.05512 35.1752H0.44282V34.971H1.05512V35.1752ZM0.340761 35.1752H-0.113065V34.8126H0.0910372V35.0731H-0.0110139V34.971H0.340761V35.1752ZM-0.113065 34.7105V34.0982H0.0910372V34.7105H-0.113065ZM-0.113065 33.9962V33.3839H0.0910372V33.9962H-0.113065ZM-0.113065 33.2818V32.6695H0.0910372V33.2818H-0.113065ZM-0.113065 32.5674V31.9551H0.0910372V32.5674H-0.113065ZM-0.113065 31.8531V31.2408H0.0910372V31.8531H-0.113065ZM-0.113065 31.1387V30.5264H0.0910372V31.1387H-0.113065ZM-0.113065 30.4244V29.8121H0.0910372V30.4244H-0.113065ZM-0.113065 29.71V29.0977H0.0910372V29.71H-0.113065ZM-0.113065 28.9957V28.3833H0.0910372V28.9957H-0.113065ZM-0.113065 28.2813V27.669H0.0910372V28.2813H-0.113065ZM-0.113065 27.5669V26.9546H0.0910372V27.5669H-0.113065ZM-0.113065 26.8526V26.2403H0.0910372V26.8526H-0.113065ZM-0.113065 26.1382V25.5259H0.0910372V26.1382H-0.113065ZM-0.113065 25.4239V24.8116H0.0910372V25.4239H-0.113065ZM-0.113065 24.7095V24.0972H0.0910372V24.7095H-0.113065ZM-0.113065 23.9951V23.3828H0.0910372V23.9951H-0.113065ZM-0.113065 23.2808V22.6685H0.0910372V23.2808H-0.113065ZM-0.113065 22.5664V21.9541H0.0910372V22.5664H-0.113065ZM-0.113065 21.8521V21.2398H0.0910372V21.8521H-0.113065ZM-0.113065 21.1377V20.5254H0.0910372V21.1377H-0.113065ZM-0.113065 20.4234V19.8111H0.0910372V20.4234H-0.113065ZM-0.113065 19.709V19.0967H0.0910372V19.709H-0.113065ZM-0.113065 18.9946V18.3823H0.0910372V18.9946H-0.113065ZM-0.113065 18.2803V17.668H0.0910372V18.2803H-0.113065ZM-0.113065 17.5659V16.9536H0.0910372V17.5659H-0.113065ZM-0.113065 16.8516V16.2393H0.0910372V16.8516H-0.113065ZM-0.113065 16.1372V15.5249H0.0910372V16.1372H-0.113065ZM-0.113065 15.4229V14.8105H0.0910372V15.4229H-0.113065ZM-0.113065 14.7085V14.0962H0.0910372V14.7085H-0.113065ZM-0.113065 13.9941V13.3818H0.0910372V13.9941H-0.113065ZM-0.113065 13.2798V12.6675H0.0910372V13.2798H-0.113065ZM-0.113065 12.5654V11.9531H0.0910372V12.5654H-0.113065ZM-0.113065 11.8511V11.2388H0.0910372V11.8511H-0.113065ZM-0.113065 11.1367V10.5244H0.0910372V11.1367H-0.113065ZM-0.113065 10.4224V9.81004H0.0910372V10.4224H-0.113065ZM-0.113065 9.70799V9.09569H0.0910372V9.70799H-0.113065ZM-0.113065 8.99363V8.38133H0.0910372V8.99363H-0.113065ZM-0.113065 8.27927V7.66697H0.0910372V8.27927H-0.113065ZM-0.113065 7.56492V6.95261H0.0910372V7.56492H-0.113065ZM-0.113065 6.85056V6.23825H0.0910372V6.85056H-0.113065ZM-0.113065 6.1362V5.5239H0.0910372V6.1362H-0.113065ZM-0.113065 5.42184V4.80954H0.0910372V5.42184H-0.113065ZM-0.113065 4.70748V4.09518H0.0910372V4.70748H-0.113065ZM-0.113065 3.99313V3.38082H0.0910372V3.99313H-0.113065ZM-0.113065 3.27877V2.66646H0.0910372V3.27877H-0.113065ZM-0.113065 2.56441V1.95211H0.0910372V2.56441H-0.113065ZM-0.113065 1.85005V1.23775H0.0910372V1.85005H-0.113065ZM-0.113065 1.13569V0.523392H0.0910372V1.13569H-0.113065ZM-0.113065 0.421346V-0.108413H0.601293V0.0956895H-0.0110139V-0.00636157H0.0910372V0.421346H-0.113065Z" fill="var(--fill-0, #22ACF5)"/>
</g>
</g>
</g>
</svg>
