<svg preserveAspectRatio="none" width="100%" height="100%" overflow="visible" style="display: block;" viewBox="0 0 50.2642 16.68" fill="none" xmlns="http://www.w3.org/2000/svg">
<g id="White box">
<mask id="mask0_346_33" style="mask-type:luminance" maskUnits="userSpaceOnUse" x="0" y="0" width="51" height="17">
<path id="Vector" fill-rule="evenodd" clip-rule="evenodd" d="M0 1.13249e-06H50.2642V16.68H0V1.13249e-06Z" fill="var(--fill-0, white)"/>
</mask>
<g mask="url(#mask0_346_33)">
<g id="Group">
<path id="Vector_2" d="M0.00728898 -0.00634766H50.2637V16.6879H0.00728898V-0.00634766Z" fill="var(--fill-0, white)"/>
<path id="Vector_3" d="M0.790155 -0.108397H1.46121V0.0957048H0.790155V-0.108397ZM1.57305 -0.108397H2.2441V0.0957048H1.57305V-0.108397ZM2.35594 -0.108397H3.02699V0.0957048H2.35594V-0.108397ZM3.13884 -0.108397H3.80989V0.0957048H3.13884V-0.108397ZM3.92173 -0.108397H4.59278V0.0957048H3.92173V-0.108397ZM4.70462 -0.108397H5.37568V0.0957048H4.70462V-0.108397ZM5.48752 -0.108397H6.15857V0.0957048H5.48752V-0.108397ZM6.27041 -0.108397H6.94146V0.0957048H6.27041V-0.108397ZM7.0533 -0.108397H7.72436V0.0957048H7.0533V-0.108397ZM7.8362 -0.108397H8.50725V0.0957048H7.8362V-0.108397ZM8.61909 -0.108397H9.29014V0.0957048H8.61909V-0.108397ZM9.40199 -0.108397H10.073V0.0957048H9.40199V-0.108397ZM10.1849 -0.108397H10.8559V0.0957048H10.1849V-0.108397ZM10.9678 -0.108397H11.6388V0.0957048H10.9678V-0.108397ZM11.7507 -0.108397H12.4217V0.0957048H11.7507V-0.108397ZM12.5336 -0.108397H13.2046V0.0957048H12.5336V-0.108397ZM13.3165 -0.108397H13.9875V0.0957048H13.3165V-0.108397ZM14.0993 -0.108397H14.7704V0.0957048H14.0993V-0.108397ZM14.8822 -0.108397H15.5533V0.0957048H14.8822V-0.108397ZM15.6651 -0.108397H16.3362V0.0957048H15.6651V-0.108397ZM16.448 -0.108397H17.1191V0.0957048H16.448V-0.108397ZM17.2309 -0.108397H17.902V0.0957048H17.2309V-0.108397ZM18.0138 -0.108397H18.6849V0.0957048H18.0138V-0.108397ZM18.7967 -0.108397H19.4678V0.0957048H18.7967V-0.108397ZM19.5796 -0.108397H20.2507V0.0957048H19.5796V-0.108397ZM20.3625 -0.108397H21.0336V0.0957048H20.3625V-0.108397ZM21.1454 -0.108397H21.8164V0.0957048H21.1454V-0.108397ZM21.9283 -0.108397H22.5993V0.0957048H21.9283V-0.108397ZM22.7112 -0.108397H23.3822V0.0957048H22.7112V-0.108397ZM23.4941 -0.108397H24.1651V0.0957048H23.4941V-0.108397ZM24.277 -0.108397H24.948V0.0957048H24.277V-0.108397ZM25.0599 -0.108397H25.7309V0.0957048H25.0599V-0.108397ZM25.8428 -0.108397H26.5138V0.0957048H25.8428V-0.108397ZM26.6256 -0.108397H27.2967V0.0957048H26.6256V-0.108397ZM27.4085 -0.108397H28.0796V0.0957048H27.4085V-0.108397ZM28.1914 -0.108397H28.8625V0.0957048H28.1914V-0.108397ZM28.9743 -0.108397H29.6454V0.0957048H28.9743V-0.108397ZM29.7572 -0.108397H30.4283V0.0957048H29.7572V-0.108397ZM30.5401 -0.108397H31.2112V0.0957048H30.5401V-0.108397ZM31.323 -0.108397H31.9941V0.0957048H31.323V-0.108397ZM32.1059 -0.108397H32.777V0.0957048H32.1059V-0.108397ZM32.8888 -0.108397H33.5599V0.0957048H32.8888V-0.108397ZM33.6717 -0.108397H34.3427V0.0957048H33.6717V-0.108397ZM34.4546 -0.108397H35.1256V0.0957048H34.4546V-0.108397ZM35.2375 -0.108397H35.9085V0.0957048H35.2375V-0.108397ZM36.0204 -0.108397H36.6914V0.0957048H36.0204V-0.108397ZM36.8033 -0.108397H37.4743V0.0957048H36.8033V-0.108397ZM37.5862 -0.108397H38.2572V0.0957048H37.5862V-0.108397ZM38.3691 -0.108397H39.0401V0.0957048H38.3691V-0.108397ZM39.1519 -0.108397H39.823V0.0957048H39.1519V-0.108397ZM39.9348 -0.108397H40.6059V0.0957048H39.9348V-0.108397ZM40.7177 -0.108397H41.3888V0.0957048H40.7177V-0.108397ZM41.5006 -0.108397H42.1717V0.0957048H41.5006V-0.108397ZM42.2835 -0.108397H42.9546V0.0957048H42.2835V-0.108397ZM43.0664 -0.108397H43.7375V0.0957048H43.0664V-0.108397ZM43.8493 -0.108397H44.5204V0.0957048H43.8493V-0.108397ZM44.6322 -0.108397H45.3033V0.0957048H44.6322V-0.108397ZM45.4151 -0.108397H46.0862V0.0957048H45.4151V-0.108397ZM46.198 -0.108397H46.869V0.0957048H46.198V-0.108397ZM46.9809 -0.108397H47.6519V0.0957048H46.9809V-0.108397ZM47.7638 -0.108397H48.4348V0.0957048H47.7638V-0.108397ZM48.5467 -0.108397H49.2177V0.0957048H48.5467V-0.108397ZM49.3296 -0.108397H50.0006V0.0957048H49.3296V-0.108397ZM50.1125 -0.108397H50.3755V0.468038H50.1518V-0.00634632H50.2636V0.0957048H50.1125V-0.108397ZM50.3755 0.57009V1.18239H50.1518V0.57009H50.3755ZM50.3755 1.28445V1.89675H50.1518V1.28445H50.3755ZM50.3755 1.9988V2.61111H50.1518V1.9988H50.3755ZM50.3755 2.71316V3.32547H50.1518V2.71316H50.3755ZM50.3755 3.42752V4.03983H50.1518V3.42752H50.3755ZM50.3755 4.14188V4.75418H50.1518V4.14188H50.3755ZM50.3755 4.85623V5.46854H50.1518V4.85623H50.3755ZM50.3755 5.57059V6.1829H50.1518V5.57059H50.3755ZM50.3755 6.28495V6.89726H50.1518V6.28495H50.3755ZM50.3755 6.99931V7.61162H50.1518V6.99931H50.3755ZM50.3755 7.71366V8.32597H50.1518V7.71366H50.3755ZM50.3755 8.42802V9.04033H50.1518V8.42802H50.3755ZM50.3755 9.14238V9.75469H50.1518V9.14238H50.3755ZM50.3755 9.85674V10.469H50.1518V9.85674H50.3755ZM50.3755 10.5711V11.1834H50.1518V10.5711H50.3755ZM50.3755 11.2855V11.8978H50.1518V11.2855H50.3755ZM50.3755 11.9998V12.6121H50.1518V11.9998H50.3755ZM50.3755 12.7142V13.3265H50.1518V12.7142H50.3755ZM50.3755 13.4285V14.0408H50.1518V13.4285H50.3755ZM50.3755 14.1429V14.7552H50.1518V14.1429H50.3755ZM50.3755 14.8572V15.4695H50.1518V14.8572H50.3755ZM50.3755 15.5716V16.1839H50.1518V15.5716H50.3755ZM50.3755 16.286V16.7909H50.0341V16.5868H50.2636V16.6889H50.1518V16.286H50.3755ZM49.9223 16.7909H49.2512V16.5868H49.9223V16.7909ZM49.1394 16.7909H48.4683V16.5868H49.1394V16.7909ZM48.3565 16.7909H47.6855V16.5868H48.3565V16.7909ZM47.5736 16.7909H46.9026V16.5868H47.5736V16.7909ZM46.7907 16.7909H46.1197V16.5868H46.7907V16.7909ZM46.0078 16.7909H45.3368V16.5868H46.0078V16.7909ZM45.2249 16.7909H44.5539V16.5868H45.2249V16.7909ZM44.442 16.7909H43.771V16.5868H44.442V16.7909ZM43.6591 16.7909H42.9881V16.5868H43.6591V16.7909ZM42.8762 16.7909H42.2052V16.5868H42.8762V16.7909ZM42.0934 16.7909H41.4223V16.5868H42.0934V16.7909ZM41.3105 16.7909H40.6394V16.5868H41.3105V16.7909ZM40.5276 16.7909H39.8565V16.5868H40.5276V16.7909ZM39.7447 16.7909H39.0736V16.5868H39.7447V16.7909ZM38.9618 16.7909H38.2907V16.5868H38.9618V16.7909ZM38.1789 16.7909H37.5078V16.5868H38.1789V16.7909ZM37.396 16.7909H36.7249V16.5868H37.396V16.7909ZM36.6131 16.7909H35.942V16.5868H36.6131V16.7909ZM35.8302 16.7909H35.1591V16.5868H35.8302V16.7909ZM35.0473 16.7909H34.3763V16.5868H35.0473V16.7909ZM34.2644 16.7909H33.5934V16.5868H34.2644V16.7909ZM33.4815 16.7909H32.8105V16.5868H33.4815V16.7909ZM32.6986 16.7909H32.0276V16.5868H32.6986V16.7909ZM31.9157 16.7909H31.2447V16.5868H31.9157V16.7909ZM31.1328 16.7909H30.4618V16.5868H31.1328V16.7909ZM30.3499 16.7909H29.6789V16.5868H30.3499V16.7909ZM29.5671 16.7909H28.896V16.5868H29.5671V16.7909ZM28.7842 16.7909H28.1131V16.5868H28.7842V16.7909ZM28.0013 16.7909H27.3302V16.5868H28.0013V16.7909ZM27.2184 16.7909H26.5473V16.5868H27.2184V16.7909ZM26.4355 16.7909H25.7644V16.5868H26.4355V16.7909ZM25.6526 16.7909H24.9815V16.5868H25.6526V16.7909ZM24.8697 16.7909H24.1986V16.5868H24.8697V16.7909ZM24.0868 16.7909H23.4157V16.5868H24.0868V16.7909ZM23.3039 16.7909H22.6328V16.5868H23.3039V16.7909ZM22.521 16.7909H21.85V16.5868H22.521V16.7909ZM21.7381 16.7909H21.0671V16.5868H21.7381V16.7909ZM20.9552 16.7909H20.2842V16.5868H20.9552V16.7909ZM20.1723 16.7909H19.5013V16.5868H20.1723V16.7909ZM19.3894 16.7909H18.7184V16.5868H19.3894V16.7909ZM18.6065 16.7909H17.9355V16.5868H18.6065V16.7909ZM17.8237 16.7909H17.1526V16.5868H17.8237V16.7909ZM17.0408 16.7909H16.3697V16.5868H17.0408V16.7909ZM16.2579 16.7909H15.5868V16.5868H16.2579V16.7909ZM15.475 16.7909H14.8039V16.5868H15.475V16.7909ZM14.6921 16.7909H14.021V16.5868H14.6921V16.7909ZM13.9092 16.7909H13.2381V16.5868H13.9092V16.7909ZM13.1263 16.7909H12.4552V16.5868H13.1263V16.7909ZM12.3434 16.7909H11.6723V16.5868H12.3434V16.7909ZM11.5605 16.7909H10.8894V16.5868H11.5605V16.7909ZM10.7776 16.7909H10.1065V16.5868H10.7776V16.7909ZM9.99471 16.7909H9.32366V16.5868H9.99471V16.7909ZM9.21182 16.7909H8.54076V16.5868H9.21182V16.7909ZM8.42892 16.7909H7.75787V16.5868H8.42892V16.7909ZM7.64603 16.7909H6.97498V16.5868H7.64603V16.7909ZM6.86313 16.7909H6.19208V16.5868H6.86313V16.7909ZM6.08025 16.7909H5.40919V16.5868H6.08025V16.7909ZM5.29735 16.7909H4.6263V16.5868H5.29735V16.7909ZM4.51445 16.7909H3.84341V16.5868H4.51445V16.7909ZM3.73156 16.7909H3.06051V16.5868H3.73156V16.7909ZM2.94867 16.7909H2.27761V16.5868H2.94867V16.7909ZM2.16577 16.7909H1.49472V16.5868H2.16577V16.7909ZM1.38288 16.7909H0.711834V16.5868H1.38288V16.7909ZM0.599984 16.7909H-0.104581V16.6174H0.119103V16.6889H0.00726102V16.5868H0.599984V16.7909ZM-0.104581 16.5153V15.903H0.119103V16.5153H-0.104581ZM-0.104581 15.801V15.1887H0.119103V15.801H-0.104581ZM-0.104581 15.0866V14.4743H0.119103V15.0866H-0.104581ZM-0.104581 14.3723V13.76H0.119103V14.3723H-0.104581ZM-0.104581 13.6579V13.0456H0.119103V13.6579H-0.104581ZM-0.104581 12.9436V12.3312H0.119103V12.9436H-0.104581ZM-0.104581 12.2292V11.6169H0.119103V12.2292H-0.104581ZM-0.104581 11.5148V10.9025H0.119103V11.5148H-0.104581ZM-0.104581 10.8005V10.1882H0.119103V10.8005H-0.104581ZM-0.104581 10.0861V9.47382H0.119103V10.0861H-0.104581ZM-0.104581 9.37176V8.75946H0.119103V9.37176H-0.104581ZM-0.104581 8.6574V8.0451H0.119103V8.6574H-0.104581ZM-0.104581 7.94306V7.33074H0.119103V7.94306H-0.104581ZM-0.104581 7.2287V6.61638H0.119103V7.2287H-0.104581ZM-0.104581 6.51434V5.90203H0.119103V6.51434H-0.104581ZM-0.104581 5.79998V5.18767H0.119103V5.79998H-0.104581ZM-0.104581 5.08561V4.47331H0.119103V5.08561H-0.104581ZM-0.104581 4.37127V3.75895H0.119103V4.37127H-0.104581ZM-0.104581 3.65691V3.04459H0.119103V3.65691H-0.104581ZM-0.104581 2.94255V2.33025H0.119103V2.94255H-0.104581ZM-0.104581 2.22819V1.61589H0.119103V2.22819H-0.104581ZM-0.104581 1.51383V0.901525H0.119103V1.51383H-0.104581ZM-0.104581 0.799479V0.187165H0.119103V0.799479H-0.104581ZM-0.104581 0.0851189V-0.108397H0.678313V0.0957048H0.00726102V-0.00634632H0.119103V0.0851189H-0.104581Z" fill="var(--fill-0, #F3A8E5)"/>
</g>
</g>
</g>
</svg>
