<svg preserveAspectRatio="none" width="100%" height="100%" overflow="visible" style="display: block;" viewBox="0 0 15.6721 9.83013" fill="none" xmlns="http://www.w3.org/2000/svg">
<g id="Group">
<path id="Vector" d="M0.107646 0.102058H15.5551V9.72816H0.107646V0.102058Z" fill="var(--fill-0, white)"/>
<path id="Vector_2" d="M0.86094 0H1.50665V0.204102H0.86094V0ZM1.61426 0H2.25997V0.204102H1.61426V0ZM2.36759 0H3.01329V0.204102H2.36759V0ZM3.12091 0H3.76661V0.204102H3.12091V0ZM3.87423 0H4.51994V0.204102H3.87423V0ZM4.62755 0H5.27326V0.204102H4.62755V0ZM5.38088 0H6.02658V0.204102H5.38088V0ZM6.1342 0H6.7799V0.204102H6.1342V0ZM6.88752 0H7.53323V0.204102H6.88752V0ZM7.64084 0H8.28655V0.204102H7.64084V0ZM8.39417 0H9.03987V0.204102H8.39417V0ZM9.14749 0H9.79319V0.204102H9.14749V0ZM9.90081 0H10.5465V0.204102H9.90081V0ZM10.6541 0H11.2998V0.204102H10.6541V0ZM11.4075 0H12.0532V0.204102H11.4075V0ZM12.1608 0H12.8065V0.204102H12.1608V0ZM12.9141 0H13.5598V0.204102H12.9141V0ZM13.6674 0H14.3131V0.204102H13.6674V0ZM14.4207 0H15.0665V0.204102H14.4207V0ZM15.1741 0H15.6721V0.344148H15.4569V0.102051H15.5645V0.204102H15.1741V0ZM15.6721 0.4462V1.05851H15.4569V0.4462H15.6721ZM15.6721 1.16056V1.77286H15.4569V1.16056H15.6721ZM15.6721 1.87492V2.48722H15.4569V1.87492H15.6721ZM15.6721 2.58927V3.20158H15.4569V2.58927H15.6721ZM15.6721 3.30363V3.91594H15.4569V3.30363H15.6721ZM15.6721 4.01799V4.63029H15.4569V4.01799H15.6721ZM15.6721 4.73235V5.34465H15.4569V4.73235H15.6721ZM15.6721 5.4467V6.05901H15.4569V5.4467H15.6721ZM15.6721 6.16106V6.77337H15.4569V6.16106H15.6721ZM15.6721 6.87542V7.48773H15.4569V6.87542H15.6721ZM15.6721 7.58978V8.20208H15.4569V7.58978H15.6721ZM15.6721 8.30414V8.91644H15.4569V8.30414H15.6721ZM15.6721 9.01849V9.6308H15.4569V9.01849H15.6721ZM15.5594 9.83012H14.9137V9.62602H15.5594V9.83012ZM14.8061 9.83012H14.1604V9.62602H14.8061V9.83012ZM14.0528 9.83012H13.4071V9.62602H14.0528V9.83012ZM13.2995 9.83012H12.6538V9.62602H13.2995V9.83012ZM12.5461 9.83012H11.9004V9.62602H12.5461V9.83012ZM11.7928 9.83012H11.1471V9.62602H11.7928V9.83012ZM11.0395 9.83012H10.3938V9.62602H11.0395V9.83012ZM10.2862 9.83012H9.64047V9.62602H10.2862V9.83012ZM9.53285 9.83012H8.88715V9.62602H9.53285V9.83012ZM8.77953 9.83012H8.13382V9.62602H8.77953V9.83012ZM8.0262 9.83012H7.3805V9.62602H8.0262V9.83012ZM7.27288 9.83012H6.62718V9.62602H7.27288V9.83012ZM6.51956 9.83012H5.87385V9.62602H6.51956V9.83012ZM5.76623 9.83012H5.12053V9.62602H5.76623V9.83012ZM5.01291 9.83012H4.36721V9.62602H5.01291V9.83012ZM4.25959 9.83012H3.61389V9.62602H4.25959V9.83012ZM3.50627 9.83012H2.86056V9.62602H3.50627V9.83012ZM2.75294 9.83012H2.10724V9.62602H2.75294V9.83012ZM1.99962 9.83012H1.35392V9.62602H1.99962V9.83012ZM1.2463 9.83012H0.600595V9.62602H1.2463V9.83012ZM0.492979 9.83012H0V9.48119H0.215235V9.72807H0.107618V9.62602H0.492979V9.83012ZM0 9.37914V8.76683H0.215235V9.37914H0ZM0 8.66478V8.05248H0.215235V8.66478H0ZM0 7.95042V7.33812H0.215235V7.95042H0ZM0 7.23607V6.62376H0.215235V7.23607H0ZM0 6.52171V5.9094H0.215235V6.52171H0ZM0 5.80735V5.19505H0.215235V5.80735H0ZM0 5.09299V4.48068H0.215235V5.09299H0ZM0 4.37864V3.76633H0.215235V4.37864H0ZM0 3.66428V3.05197H0.215235V3.66428H0ZM0 2.94992V2.33761H0.215235V2.94992H0ZM0 2.23556V1.62326H0.215235V2.23556H0ZM0 1.5212V0.908897H0.215235V1.5212H0ZM0 0.806848V0.19454H0.215235V0.806848H0ZM0.107618 0H0.753323V0.204102H0.107618V0Z" fill="var(--fill-0, #6E5A00)"/>
</g>
</svg>
