<svg preserveAspectRatio="none" width="100%" height="100%" overflow="visible" style="display: block;" viewBox="0 0 47.4352 39.9591" fill="none" xmlns="http://www.w3.org/2000/svg">
<g id="Box Background">
<path id="Vector" d="M0 1.66943H45.8691V39.9591H0V1.66943Z" fill="var(--fill-0, #C4F7FF)"/>
<g id="White Box" clip-path="url(#clip0_346_45)">
<path id="Vector_2" d="M1.59302 0.00585938H47.4378V38.1509H1.59302V0.00585938Z" fill="var(--fill-0, white)"/>
<path id="Vector_3" d="M2.7837 -0.164225H3.80421V0.175945H2.7837V-0.164225ZM3.97429 -0.164225H4.9948V0.175945H3.97429V-0.164225ZM5.16489 -0.164225H6.1854V0.175945H5.16489V-0.164225ZM6.35549 -0.164225H7.376V0.175945H6.35549V-0.164225ZM7.54608 -0.164225H8.56659V0.175945H7.54608V-0.164225ZM8.73668 -0.164225H9.75719V0.175945H8.73668V-0.164225ZM9.92727 -0.164225H10.9478V0.175945H9.92727V-0.164225ZM11.1179 -0.164225H12.1384V0.175945H11.1179V-0.164225ZM12.3085 -0.164225H13.329V0.175945H12.3085V-0.164225ZM13.4991 -0.164225H14.5196V0.175945H13.4991V-0.164225ZM14.6897 -0.164225H15.7102V0.175945H14.6897V-0.164225ZM15.8803 -0.164225H16.9008V0.175945H15.8803V-0.164225ZM17.0709 -0.164225H18.0914V0.175945H17.0709V-0.164225ZM18.2614 -0.164225H19.282V0.175945H18.2614V-0.164225ZM19.452 -0.164225H20.4726V0.175945H19.452V-0.164225ZM20.6426 -0.164225H21.6632V0.175945H20.6426V-0.164225ZM21.8332 -0.164225H22.8537V0.175945H21.8332V-0.164225ZM23.0238 -0.164225H24.0443V0.175945H23.0238V-0.164225ZM24.2144 -0.164225H25.2349V0.175945H24.2144V-0.164225ZM25.405 -0.164225H26.4255V0.175945H25.405V-0.164225ZM26.5956 -0.164225H27.6161V0.175945H26.5956V-0.164225ZM27.7862 -0.164225H28.8067V0.175945H27.7862V-0.164225ZM28.9768 -0.164225H29.9973V0.175945H28.9768V-0.164225ZM30.1674 -0.164225H31.1879V0.175945H30.1674V-0.164225ZM31.358 -0.164225H32.3785V0.175945H31.358V-0.164225ZM32.5486 -0.164225H33.5691V0.175945H32.5486V-0.164225ZM33.7392 -0.164225H34.7597V0.175945H33.7392V-0.164225ZM34.9298 -0.164225H35.9503V0.175945H34.9298V-0.164225ZM36.1204 -0.164225H37.1409V0.175945H36.1204V-0.164225ZM37.311 -0.164225H38.3315V0.175945H37.311V-0.164225ZM38.5016 -0.164225H39.5221V0.175945H38.5016V-0.164225ZM39.6922 -0.164225H40.7127V0.175945H39.6922V-0.164225ZM40.8828 -0.164225H41.9033V0.175945H40.8828V-0.164225ZM42.0734 -0.164225H43.0939V0.175945H42.0734V-0.164225ZM43.264 -0.164225H44.2845V0.175945H43.264V-0.164225ZM44.4546 -0.164225H45.4751V0.175945H44.4546V-0.164225ZM45.6452 -0.164225H46.6657V0.175945H45.6452V-0.164225ZM46.8358 -0.164225H47.62V0.412253H47.2798V0.00586031H47.4499V0.175945H46.8358V-0.164225ZM47.62 0.582338V1.60285H47.2798V0.582338H47.62ZM47.62 1.77293V2.79345H47.2798V1.77293H47.62ZM47.62 2.96353V3.98404H47.2798V2.96353H47.62ZM47.62 4.15413V5.17464H47.2798V4.15413H47.62ZM47.62 5.34473V6.36524H47.2798V5.34473H47.62ZM47.62 6.53532V7.55583H47.2798V6.53532H47.62ZM47.62 7.72592V8.74643H47.2798V7.72592H47.62ZM47.62 8.91651V9.93703H47.2798V8.91651H47.62ZM47.62 10.1071V11.1276H47.2798V10.1071H47.62ZM47.62 11.2977V12.3182H47.2798V11.2977H47.62ZM47.62 12.4883V13.5088H47.2798V12.4883H47.62ZM47.62 13.6789V14.6994H47.2798V13.6789H47.62ZM47.62 14.8695V15.89H47.2798V14.8695H47.62ZM47.62 16.0601V17.0806H47.2798V16.0601H47.62ZM47.62 17.2507V18.2712H47.2798V17.2507H47.62ZM47.62 18.4413V19.4618H47.2798V18.4413H47.62ZM47.62 19.6319V20.6524H47.2798V19.6319H47.62ZM47.62 20.8225V21.843H47.2798V20.8225H47.62ZM47.62 22.0131V23.0336H47.2798V22.0131H47.62ZM47.62 23.2037V24.2242H47.2798V23.2037H47.62ZM47.62 24.3943V25.4148H47.2798V24.3943H47.62ZM47.62 25.5849V26.6054H47.2798V25.5849H47.62ZM47.62 26.7755V27.796H47.2798V26.7755H47.62ZM47.62 27.9661V28.9866H47.2798V27.9661H47.62ZM47.62 29.1567V30.1772H47.2798V29.1567H47.62ZM47.62 30.3472V31.3678H47.2798V30.3472H47.62ZM47.62 31.5378V32.5584H47.2798V31.5378H47.62ZM47.62 32.7284V33.7489H47.2798V32.7284H47.62ZM47.62 33.919V34.9395H47.2798V33.919H47.62ZM47.62 35.1096V36.1301H47.2798V35.1096H47.62ZM47.62 36.3002V37.3207H47.2798V36.3002H47.62ZM47.62 37.4908V38.3209H47.0893V37.9807H47.4499V38.1508H47.2798V37.4908H47.62ZM46.9192 38.3209H45.8987V37.9807H46.9192V38.3209ZM45.7286 38.3209H44.7081V37.9807H45.7286V38.3209ZM44.5381 38.3209H43.5175V37.9807H44.5381V38.3209ZM43.3475 38.3209H42.3269V37.9807H43.3475V38.3209ZM42.1569 38.3209H41.1364V37.9807H42.1569V38.3209ZM40.9663 38.3209H39.9458V37.9807H40.9663V38.3209ZM39.7757 38.3209H38.7552V37.9807H39.7757V38.3209ZM38.5851 38.3209H37.5646V37.9807H38.5851V38.3209ZM37.3945 38.3209H36.374V37.9807H37.3945V38.3209ZM36.2039 38.3209H35.1834V37.9807H36.2039V38.3209ZM35.0133 38.3209H33.9928V37.9807H35.0133V38.3209ZM33.8227 38.3209H32.8022V37.9807H33.8227V38.3209ZM32.6321 38.3209H31.6116V37.9807H32.6321V38.3209ZM31.4415 38.3209H30.421V37.9807H31.4415V38.3209ZM30.2509 38.3209H29.2304V37.9807H30.2509V38.3209ZM29.0603 38.3209H28.0398V37.9807H29.0603V38.3209ZM27.8697 38.3209H26.8492V37.9807H27.8697V38.3209ZM26.6791 38.3209H25.6586V37.9807H26.6791V38.3209ZM25.4885 38.3209H24.468V37.9807H25.4885V38.3209ZM24.2979 38.3209H23.2774V37.9807H24.2979V38.3209ZM23.1073 38.3209H22.0868V37.9807H23.1073V38.3209ZM21.9167 38.3209H20.8962V37.9807H21.9167V38.3209ZM20.7261 38.3209H19.7056V37.9807H20.7261V38.3209ZM19.5355 38.3209H18.515V37.9807H19.5355V38.3209ZM18.3449 38.3209H17.3244V37.9807H18.3449V38.3209ZM17.1543 38.3209H16.1338V37.9807H17.1543V38.3209ZM15.9637 38.3209H14.9432V37.9807H15.9637V38.3209ZM14.7731 38.3209H13.7526V37.9807H14.7731V38.3209ZM13.5825 38.3209H12.562V37.9807H13.5825V38.3209ZM12.3919 38.3209H11.3714V37.9807H12.3919V38.3209ZM11.2014 38.3209H10.1808V37.9807H11.2014V38.3209ZM10.0108 38.3209H8.99025V37.9807H10.0108V38.3209ZM8.82016 38.3209H7.79965V37.9807H8.82016V38.3209ZM7.62956 38.3209H6.60905V37.9807H7.62956V38.3209ZM6.43897 38.3209H5.41846V37.9807H6.43897V38.3209ZM5.24837 38.3209H4.22786V37.9807H5.24837V38.3209ZM4.05778 38.3209H3.03726V37.9807H4.05778V38.3209ZM2.86718 38.3209H1.84667V37.9807H2.86718V38.3209ZM1.67658 38.3209H1.42301V37.2138H1.76319V38.1508H1.5931V37.9807H1.67658V38.3209ZM1.42301 37.0437V36.0232H1.76319V37.0437H1.42301ZM1.42301 35.8531V34.8326H1.76319V35.8531H1.42301ZM1.42301 34.6625V33.642H1.76319V34.6625H1.42301ZM1.42301 33.4719V32.4514H1.76319V33.4719H1.42301ZM1.42301 32.2813V31.2608H1.76319V32.2813H1.42301ZM1.42301 31.0907V30.0702H1.76319V31.0907H1.42301ZM1.42301 29.9001V28.8796H1.76319V29.9001H1.42301ZM1.42301 28.7095V27.689H1.76319V28.7095H1.42301ZM1.42301 27.5189V26.4984H1.76319V27.5189H1.42301ZM1.42301 26.3283V25.3078H1.76319V26.3283H1.42301ZM1.42301 25.1377V24.1172H1.76319V25.1377H1.42301ZM1.42301 23.9471V22.9266H1.76319V23.9471H1.42301ZM1.42301 22.7565V21.736H1.76319V22.7565H1.42301ZM1.42301 21.5659V20.5454H1.76319V21.5659H1.42301ZM1.42301 20.3753V19.3548H1.76319V20.3753H1.42301ZM1.42301 19.1847V18.1642H1.76319V19.1847H1.42301ZM1.42301 17.9941V16.9736H1.76319V17.9941H1.42301ZM1.42301 16.8035V15.783H1.76319V16.8035H1.42301ZM1.42301 15.6129V14.5924H1.76319V15.6129H1.42301ZM1.42301 14.4224V13.4018H1.76319V14.4224H1.42301ZM1.42301 13.2318V12.2112H1.76319V13.2318H1.42301ZM1.42301 12.0412V11.0206H1.76319V12.0412H1.42301ZM1.42301 10.8506V9.83005H1.76319V10.8506H1.42301ZM1.42301 9.65996V8.63945H1.76319V9.65996H1.42301ZM1.42301 8.46937V7.44886H1.76319V8.46937H1.42301ZM1.42301 7.27877V6.25826H1.76319V7.27877H1.42301ZM1.42301 6.08818V5.06767H1.76319V6.08818H1.42301ZM1.42301 4.89758V3.87707H1.76319V4.89758H1.42301ZM1.42301 3.70698V2.68647H1.76319V3.70698H1.42301ZM1.42301 2.51639V1.49588H1.76319V2.51639H1.42301ZM1.42301 1.32579V0.305281H1.76319V1.32579H1.42301ZM1.42301 0.135196V-0.164225H2.61361V0.175945H1.5931V0.00586031H1.76319V0.135196H1.42301Z" fill="var(--fill-0, #22ACF5)"/>
</g>
</g>
<defs>
<clipPath id="clip0_346_45">
<rect width="45.84" height="38.16" fill="white" transform="translate(1.59521)"/>
</clipPath>
</defs>
</svg>
