<svg preserveAspectRatio="none" width="100%" height="100%" overflow="visible" style="display: block;" viewBox="0 0 31.584 11.496" fill="none" xmlns="http://www.w3.org/2000/svg">
<g id="Clip path group">
<mask id="mask0_167_52" style="mask-type:luminance" maskUnits="userSpaceOnUse" x="0" y="0" width="32" height="12">
<path id="Vector" fill-rule="evenodd" clip-rule="evenodd" d="M0 2.26498e-06H31.584V11.496H0V2.26498e-06Z" fill="var(--fill-0, white)"/>
</mask>
<g mask="url(#mask0_167_52)">
<g id="Group">
<path id="Vector_2" d="M-0.00963713 -0.00125518H31.578V11.4983H-0.00963713V-0.00125518Z" fill="var(--fill-0, white)"/>
<path id="Vector_3" d="M0.70503 -0.103306H1.31734V0.100796H0.70503V-0.103306ZM1.41939 -0.103306H2.03169V0.100796H1.41939V-0.103306ZM2.13375 -0.103306H2.74605V0.100796H2.13375V-0.103306ZM2.8481 -0.103306H3.46041V0.100796H2.8481V-0.103306ZM3.56246 -0.103306H4.17477V0.100796H3.56246V-0.103306ZM4.27682 -0.103306H4.88913V0.100796H4.27682V-0.103306ZM4.99118 -0.103306H5.60348V0.100796H4.99118V-0.103306ZM5.70554 -0.103306H6.31784V0.100796H5.70554V-0.103306ZM6.41989 -0.103306H7.0322V0.100796H6.41989V-0.103306ZM7.13425 -0.103306H7.74656V0.100796H7.13425V-0.103306ZM7.84861 -0.103306H8.46091V0.100796H7.84861V-0.103306ZM8.56297 -0.103306H9.17527V0.100796H8.56297V-0.103306ZM9.27732 -0.103306H9.88963V0.100796H9.27732V-0.103306ZM9.99168 -0.103306H10.604V0.100796H9.99168V-0.103306ZM10.706 -0.103306H11.3183V0.100796H10.706V-0.103306ZM11.4204 -0.103306H12.0327V0.100796H11.4204V-0.103306ZM12.1348 -0.103306H12.7471V0.100796H12.1348V-0.103306ZM12.8491 -0.103306H13.4614V0.100796H12.8491V-0.103306ZM13.5635 -0.103306H14.1758V0.100796H13.5635V-0.103306ZM14.2778 -0.103306H14.8901V0.100796H14.2778V-0.103306ZM14.9922 -0.103306H15.6045V0.100796H14.9922V-0.103306ZM15.7065 -0.103306H16.3188V0.100796H15.7065V-0.103306ZM16.4209 -0.103306H17.0332V0.100796H16.4209V-0.103306ZM17.1353 -0.103306H17.7476V0.100796H17.1353V-0.103306ZM17.8496 -0.103306H18.4619V0.100796H17.8496V-0.103306ZM18.564 -0.103306H19.1763V0.100796H18.564V-0.103306ZM19.2783 -0.103306H19.8906V0.100796H19.2783V-0.103306ZM19.9927 -0.103306H20.605V0.100796H19.9927V-0.103306ZM20.707 -0.103306H21.3194V0.100796H20.707V-0.103306ZM21.4214 -0.103306H22.0337V0.100796H21.4214V-0.103306ZM22.1358 -0.103306H22.7481V0.100796H22.1358V-0.103306ZM22.8501 -0.103306H23.4624V0.100796H22.8501V-0.103306ZM23.5645 -0.103306H24.1768V0.100796H23.5645V-0.103306ZM24.2788 -0.103306H24.8911V0.100796H24.2788V-0.103306ZM24.9932 -0.103306H25.6055V0.100796H24.9932V-0.103306ZM25.7076 -0.103306H26.3199V0.100796H25.7076V-0.103306ZM26.4219 -0.103306H27.0342V0.100796H26.4219V-0.103306ZM27.1363 -0.103306H27.7486V0.100796H27.1363V-0.103306ZM27.8506 -0.103306H28.4629V0.100796H27.8506V-0.103306ZM28.565 -0.103306H29.1773V0.100796H28.565V-0.103306ZM29.2793 -0.103306H29.8916V0.100796H29.2793V-0.103306ZM29.9937 -0.103306H30.606V0.100796H29.9937V-0.103306ZM30.7081 -0.103306H31.3204V0.100796H30.7081V-0.103306ZM31.4224 -0.103306H31.6798V0.455755H31.4757V-0.00125488H31.5777V0.100796H31.4224V-0.103306ZM31.6798 0.557804V1.17011H31.4757V0.557804H31.6798ZM31.6798 1.27216V1.88447H31.4757V1.27216H31.6798ZM31.6798 1.98652V2.59883H31.4757V1.98652H31.6798ZM31.6798 2.70088V3.31319H31.4757V2.70088H31.6798ZM31.6798 3.41524V4.02754H31.4757V3.41524H31.6798ZM31.6798 4.12959V4.7419H31.4757V4.12959H31.6798ZM31.6798 4.84395V5.45626H31.4757V4.84395H31.6798ZM31.6798 5.55831V6.17062H31.4757V5.55831H31.6798ZM31.6798 6.27267V6.88497H31.4757V6.27267H31.6798ZM31.6798 6.98702V7.59933H31.4757V6.98702H31.6798ZM31.6798 7.70138V8.31369H31.4757V7.70138H31.6798ZM31.6798 8.41574V9.02805H31.4757V8.41574H31.6798ZM31.6798 9.1301V9.74241H31.4757V9.1301H31.6798ZM31.6798 9.84446V10.4568H31.4757V9.84446H31.6798ZM31.6798 10.5588V11.1711H31.4757V10.5588H31.6798ZM31.6798 11.2732V11.6008H31.191V11.3967H31.5777V11.4987H31.4757V11.2732H31.6798ZM31.0889 11.6008H30.4766V11.3967H31.0889V11.6008ZM30.3745 11.6008H29.7622V11.3967H30.3745V11.6008ZM29.6602 11.6008H29.0479V11.3967H29.6602V11.6008ZM28.9458 11.6008H28.3335V11.3967H28.9458V11.6008ZM28.2315 11.6008H27.6192V11.3967H28.2315V11.6008ZM27.5171 11.6008H26.9048V11.3967H27.5171V11.6008ZM26.8028 11.6008H26.1905V11.3967H26.8028V11.6008ZM26.0884 11.6008H25.4761V11.3967H26.0884V11.6008ZM25.374 11.6008H24.7617V11.3967H25.374V11.6008ZM24.6597 11.6008H24.0474V11.3967H24.6597V11.6008ZM23.9453 11.6008H23.333V11.3967H23.9453V11.6008ZM23.231 11.6008H22.6187V11.3967H23.231V11.6008ZM22.5166 11.6008H21.9043V11.3967H22.5166V11.6008ZM21.8023 11.6008H21.1899V11.3967H21.8023V11.6008ZM21.0879 11.6008H20.4756V11.3967H21.0879V11.6008ZM20.3735 11.6008H19.7612V11.3967H20.3735V11.6008ZM19.6592 11.6008H19.0469V11.3967H19.6592V11.6008ZM18.9448 11.6008H18.3325V11.3967H18.9448V11.6008ZM18.2305 11.6008H17.6182V11.3967H18.2305V11.6008ZM17.5161 11.6008H16.9038V11.3967H17.5161V11.6008ZM16.8017 11.6008H16.1894V11.3967H16.8017V11.6008ZM16.0874 11.6008H15.4751V11.3967H16.0874V11.6008ZM15.373 11.6008H14.7607V11.3967H15.373V11.6008ZM14.6587 11.6008H14.0464V11.3967H14.6587V11.6008ZM13.9443 11.6008H13.332V11.3967H13.9443V11.6008ZM13.23 11.6008H12.6177V11.3967H13.23V11.6008ZM12.5156 11.6008H11.9033V11.3967H12.5156V11.6008ZM11.8012 11.6008H11.1889V11.3967H11.8012V11.6008ZM11.0869 11.6008H10.4746V11.3967H11.0869V11.6008ZM10.3725 11.6008H9.76022V11.3967H10.3725V11.6008ZM9.65817 11.6008H9.04586V11.3967H9.65817V11.6008ZM8.94381 11.6008H8.33151V11.3967H8.94381V11.6008ZM8.22946 11.6008H7.61715V11.3967H8.22946V11.6008ZM7.5151 11.6008H6.90279V11.3967H7.5151V11.6008ZM6.80074 11.6008H6.18844V11.3967H6.80074V11.6008ZM6.08638 11.6008H5.47408V11.3967H6.08638V11.6008ZM5.37202 11.6008H4.75972V11.3967H5.37202V11.6008ZM4.65767 11.6008H4.04536V11.3967H4.65767V11.6008ZM3.94331 11.6008H3.331V11.3967H3.94331V11.6008ZM3.22896 11.6008H2.61665V11.3967H3.22896V11.6008ZM2.5146 11.6008H1.90229V11.3967H2.5146V11.6008ZM1.80023 11.6008H1.18793V11.3967H1.80023V11.6008ZM1.08588 11.6008H0.473573V11.3967H1.08588V11.6008ZM0.371521 11.6008H-0.111379V11.2673H0.0927232V11.4987H-0.00932792V11.3967H0.371521V11.6008ZM-0.111379 11.1652V10.5529H0.0927232V11.1652H-0.111379ZM-0.111379 10.4509V9.83855H0.0927232V10.4509H-0.111379ZM-0.111379 9.7365V9.12419H0.0927232V9.7365H-0.111379ZM-0.111379 9.02214V8.40984H0.0927232V9.02214H-0.111379ZM-0.111379 8.30778V7.69548H0.0927232V8.30778H-0.111379ZM-0.111379 7.59342V6.98112H0.0927232V7.59342H-0.111379ZM-0.111379 6.87907V6.26676H0.0927232V6.87907H-0.111379ZM-0.111379 6.16471V5.5524H0.0927232V6.16471H-0.111379ZM-0.111379 5.45036V4.83805H0.0927232V5.45036H-0.111379ZM-0.111379 4.736V4.12369H0.0927232V4.736H-0.111379ZM-0.111379 4.02164V3.40933H0.0927232V4.02164H-0.111379ZM-0.111379 3.30728V2.69497H0.0927232V3.30728H-0.111379ZM-0.111379 2.59292V1.98061H0.0927232V2.59292H-0.111379ZM-0.111379 1.87857V1.26626H0.0927232V1.87857H-0.111379ZM-0.111379 1.16421V0.551899H0.0927232V1.16421H-0.111379ZM-0.111379 0.449847V-0.103306H0.602979V0.100796H-0.00932792V-0.00125488H0.0927232V0.449847H-0.111379Z" fill="var(--fill-0, #E51CFF)"/>
</g>
</g>
</g>
</svg>
