<svg preserveAspectRatio="none" width="100%" height="100%" overflow="visible" style="display: block;" viewBox="0 0 30.192 41.376" fill="none" xmlns="http://www.w3.org/2000/svg">
<g id="Clip path group">
<mask id="mask0_167_499" style="mask-type:luminance" maskUnits="userSpaceOnUse" x="0" y="0" width="31" height="42">
<path id="Vector" fill-rule="evenodd" clip-rule="evenodd" d="M2.82526e-05 1.07288e-06H30.192V41.376H2.82526e-05V1.07288e-06Z" fill="var(--fill-0, white)"/>
</mask>
<g mask="url(#mask0_167_499)">
<path id="Vector_2" d="M1.79215 -0.2591H3.32291V0.251156H1.79215V-0.2591ZM3.57804 -0.2591H5.10881V0.251156H3.57804V-0.2591ZM5.36394 -0.2591H6.8947V0.251156H5.36394V-0.2591ZM7.14983 -0.2591H8.6806V0.251156H7.14983V-0.2591ZM8.93573 -0.2591H10.4665V0.251156H8.93573V-0.2591ZM10.7216 -0.2591H12.2524V0.251156H10.7216V-0.2591ZM12.5075 -0.2591H14.0383V0.251156H12.5075V-0.2591ZM14.2934 -0.2591H15.8242V0.251156H14.2934V-0.2591ZM16.0793 -0.2591H17.6101V0.251156H16.0793V-0.2591ZM17.8652 -0.2591H19.396V0.251156H17.8652V-0.2591ZM19.6511 -0.2591H21.1819V0.251156H19.6511V-0.2591ZM21.437 -0.2591H22.9678V0.251156H21.437V-0.2591ZM23.2229 -0.2591H24.7536V0.251156H23.2229V-0.2591ZM25.0088 -0.2591H26.5395V0.251156H25.0088V-0.2591ZM26.7947 -0.2591H28.3254V0.251156H26.7947V-0.2591ZM28.5806 -0.2591H30.1113V0.251156H28.5806V-0.2591ZM30.4496 0.168022V1.69879H29.9393V0.168022H30.4496ZM30.4496 1.95392V3.48468H29.9393V1.95392H30.4496ZM30.4496 3.73981V5.27058H29.9393V3.73981H30.4496ZM30.4496 5.52571V7.05647H29.9393V5.52571H30.4496ZM30.4496 7.3116V8.84237H29.9393V7.3116H30.4496ZM30.4496 9.09749V10.6283H29.9393V9.09749H30.4496ZM30.4496 10.8834V12.4142H29.9393V10.8834H30.4496ZM30.4496 12.6693V14.2H29.9393V12.6693H30.4496ZM30.4496 14.4552V15.9859H29.9393V14.4552H30.4496ZM30.4496 16.2411V17.7718H29.9393V16.2411H30.4496ZM30.4496 18.027V19.5577H29.9393V18.027H30.4496ZM30.4496 19.8129V21.3436H29.9393V19.8129H30.4496ZM30.4496 21.5988V23.1295H29.9393V21.5988H30.4496ZM30.4496 23.3846V24.9154H29.9393V23.3846H30.4496ZM30.4496 25.1705V26.7013H29.9393V25.1705H30.4496ZM30.4496 26.9564V28.4872H29.9393V26.9564H30.4496ZM30.4496 28.7423V30.2731H29.9393V28.7423H30.4496ZM30.4496 30.5282V32.059H29.9393V30.5282H30.4496ZM30.4496 32.3141V33.8449H29.9393V32.3141H30.4496ZM30.4496 34.1V35.6308H29.9393V34.1H30.4496ZM30.4496 35.8859V37.4167H29.9393V35.8859H30.4496ZM30.4496 37.6718V39.2026H29.9393V37.6718H30.4496ZM30.4496 39.4577V40.9885H29.9393V39.4577H30.4496ZM30.4496 41.2436V41.6396H28.8045V41.1293H30.1945V41.3844H29.9393V41.2436H30.4496ZM28.5494 41.6396H27.0186V41.1293H28.5494V41.6396ZM26.7635 41.6396H25.2328V41.1293H26.7635V41.6396ZM24.9776 41.6396H23.4469V41.1293H24.9776V41.6396ZM23.1917 41.6396H21.661V41.1293H23.1917V41.6396ZM21.4058 41.6396H19.8751V41.1293H21.4058V41.6396ZM19.6199 41.6396H18.0892V41.1293H19.6199V41.6396ZM17.834 41.6396H16.3033V41.1293H17.834V41.6396ZM16.0482 41.6396H14.5174V41.1293H16.0482V41.6396ZM14.2623 41.6396H12.7315V41.1293H14.2623V41.6396ZM12.4764 41.6396H10.9456V41.1293H12.4764V41.6396ZM10.6905 41.6396H9.15971V41.1293H10.6905V41.6396ZM8.90458 41.6396H7.37381V41.1293H8.90458V41.6396ZM7.11868 41.6396H5.58792V41.1293H7.11868V41.6396ZM5.33279 41.6396H3.80202V41.1293H5.33279V41.6396ZM3.54689 41.6396H2.01613V41.1293H3.54689V41.6396ZM1.761 41.6396H0.230233V41.1293H1.761V41.6396ZM-0.248875 41.3533V39.8225H0.26138V41.3533H-0.248875ZM-0.248875 39.5674V38.0366H0.26138V39.5674H-0.248875ZM-0.248875 37.7815V36.2507H0.26138V37.7815H-0.248875ZM-0.248875 35.9956V34.4648H0.26138V35.9956H-0.248875ZM-0.248875 34.2097V32.6789H0.26138V34.2097H-0.248875ZM-0.248875 32.4238V30.893H0.26138V32.4238H-0.248875ZM-0.248875 30.6379V29.1072H0.26138V30.6379H-0.248875ZM-0.248875 28.852V27.3213H0.26138V28.852H-0.248875ZM-0.248875 27.0661V25.5354H0.26138V27.0661H-0.248875ZM-0.248875 25.2802V23.7495H0.26138V25.2802H-0.248875ZM-0.248875 23.4943V21.9636H0.26138V23.4943H-0.248875ZM-0.248875 21.7084V20.1777H0.26138V21.7084H-0.248875ZM-0.248875 19.9226V18.3918H0.26138V19.9226H-0.248875ZM-0.248875 18.1367V16.6059H0.26138V18.1367H-0.248875ZM-0.248875 16.3508V14.82H0.26138V16.3508H-0.248875ZM-0.248875 14.5649V13.0341H0.26138V14.5649H-0.248875ZM-0.248875 12.779V11.2482H0.26138V12.779H-0.248875ZM-0.248875 10.9931V9.46232H0.26138V10.9931H-0.248875ZM-0.248875 9.20719V7.67642H0.26138V9.20719H-0.248875ZM-0.248875 7.42129V5.89053H0.26138V7.42129H-0.248875ZM-0.248875 5.6354V4.10463H0.26138V5.6354H-0.248875ZM-0.248875 3.8495V2.31874H0.26138V3.8495H-0.248875ZM-0.248875 2.06361V0.532843H0.26138V2.06361H-0.248875ZM-0.248875 0.277715V-0.2591H1.53702V0.251156H0.00625245V-0.0039722H0.26138V0.277715H-0.248875Z" fill="var(--fill-0, #C2FDFF)"/>
</g>
</g>
</svg>
