<svg preserveAspectRatio="none" width="100%" height="100%" overflow="visible" style="display: block;" viewBox="0 0 51 27" fill="none" xmlns="http://www.w3.org/2000/svg">
<g id="Map Border dotted">
<mask id="mask0_346_131" style="mask-type:luminance" maskUnits="userSpaceOnUse" x="0" y="0" width="51" height="27">
<path id="Vector" fill-rule="evenodd" clip-rule="evenodd" d="M3.93391e-06 2.38419e-05H51V27H3.93391e-06V2.38419e-05Z" fill="var(--fill-0, white)"/>
</mask>
<g mask="url(#mask0_346_131)">
<path id="Vector_2" d="M1.23436 -0.37085H2.15024V0.341242H1.23436V-0.37085ZM2.45554 -0.37085H3.37143V0.341242H2.45554V-0.37085ZM3.67672 -0.37085H4.59261V0.341242H3.67672V-0.37085ZM4.89791 -0.37085H5.81379V0.341242H4.89791V-0.37085ZM6.11909 -0.37085H7.03498V0.341242H6.11909V-0.37085ZM7.34027 -0.37085H8.25616V0.341242H7.34027V-0.37085ZM8.56146 -0.37085H9.47735V0.341242H8.56146V-0.37085ZM9.78264 -0.37085H10.6985V0.341242H9.78264V-0.37085ZM11.0038 -0.37085H11.9197V0.341242H11.0038V-0.37085ZM12.225 -0.37085H13.1409V0.341242H12.225V-0.37085ZM13.4462 -0.37085H14.3621V0.341242H13.4462V-0.37085ZM14.6674 -0.37085H15.5833V0.341242H14.6674V-0.37085ZM15.8886 -0.37085H16.8044V0.341242H15.8886V-0.37085ZM17.1097 -0.37085H18.0256V0.341242H17.1097V-0.37085ZM18.3309 -0.37085H19.2468V0.341242H18.3309V-0.37085ZM19.5521 -0.37085H20.468V0.341242H19.5521V-0.37085ZM20.7733 -0.37085H21.6892V0.341242H20.7733V-0.37085ZM21.9945 -0.37085H22.9104V0.341242H21.9945V-0.37085ZM23.2157 -0.37085H24.1316V0.341242H23.2157V-0.37085ZM24.4368 -0.37085H25.3527V0.341242H24.4368V-0.37085ZM25.658 -0.37085H26.5739V0.341242H25.658V-0.37085ZM26.8792 -0.37085H27.7951V0.341242H26.8792V-0.37085ZM28.1004 -0.37085H29.0163V0.341242H28.1004V-0.37085ZM29.3216 -0.37085H30.2375V0.341242H29.3216V-0.37085ZM30.5428 -0.37085H31.4587V0.341242H30.5428V-0.37085ZM31.7639 -0.37085H32.6798V0.341242H31.7639V-0.37085ZM32.9851 -0.37085H33.901V0.341242H32.9851V-0.37085ZM34.2063 -0.37085H35.1222V0.341242H34.2063V-0.37085ZM35.4275 -0.37085H36.3434V0.341242H35.4275V-0.37085ZM36.6487 -0.37085H37.5646V0.341242H36.6487V-0.37085ZM37.8699 -0.37085H38.7858V0.341242H37.8699V-0.37085ZM39.0911 -0.37085H40.0069V0.341242H39.0911V-0.37085ZM40.3122 -0.37085H41.2281V0.341242H40.3122V-0.37085ZM41.5334 -0.37085H42.4493V0.341242H41.5334V-0.37085ZM42.7546 -0.37085H43.6705V0.341242H42.7546V-0.37085ZM43.9758 -0.37085H44.8917V0.341242H43.9758V-0.37085ZM45.197 -0.37085H46.1129V0.341242H45.197V-0.37085ZM46.4182 -0.37085H47.334V0.341242H46.4182V-0.37085ZM47.6393 -0.37085H48.5552V0.341242H47.6393V-0.37085ZM48.8605 -0.37085H49.7764V0.341242H48.8605V-0.37085ZM50.0817 -0.37085H50.9976V0.341242H50.0817V-0.37085ZM51.3036 0.340417V1.40855H50.693V0.340417H51.3036ZM51.3036 1.7646V2.83273H50.693V1.7646H51.3036ZM51.3036 3.18878V4.25692H50.693V3.18878H51.3036ZM51.3036 4.61296V5.6811H50.693V4.61296H51.3036ZM51.3036 6.03714V7.10528H50.693V6.03714H51.3036ZM51.3036 7.46133V8.52947H50.693V7.46133H51.3036ZM51.3036 8.88551V9.95365H50.693V8.88551H51.3036ZM51.3036 10.3097V11.3778H50.693V10.3097H51.3036ZM51.3036 11.7339V12.802H50.693V11.7339H51.3036ZM51.3036 13.1581V14.2262H50.693V13.1581H51.3036ZM51.3036 14.5822V15.6504H50.693V14.5822H51.3036ZM51.3036 16.0064V17.0746H50.693V16.0064H51.3036ZM51.3036 17.4306V18.4987H50.693V17.4306H51.3036ZM51.3036 18.8548V19.9229H50.693V18.8548H51.3036ZM51.3036 20.279V21.3471H50.693V20.279H51.3036ZM51.3036 21.7032V22.7713H50.693V21.7032H51.3036ZM51.3036 23.1273V24.1955H50.693V23.1273H51.3036ZM51.3036 24.5515V25.6197H50.693V24.5515H51.3036ZM51.3036 25.9757V27.3528H50.9579V26.6407H50.9983V26.9968H50.693V25.9757H51.3036ZM50.6527 27.3528H49.7368V26.6407H50.6527V27.3528ZM49.4315 27.3528H48.5156V26.6407H49.4315V27.3528ZM48.2103 27.3528H47.2944V26.6407H48.2103V27.3528ZM46.9891 27.3528H46.0732V26.6407H46.9891V27.3528ZM45.7679 27.3528H44.852V26.6407H45.7679V27.3528ZM44.5467 27.3528H43.6308V26.6407H44.5467V27.3528ZM43.3256 27.3528H42.4097V26.6407H43.3256V27.3528ZM42.1044 27.3528H41.1885V26.6407H42.1044V27.3528ZM40.8832 27.3528H39.9673V26.6407H40.8832V27.3528ZM39.662 27.3528H38.7461V26.6407H39.662V27.3528ZM38.4408 27.3528H37.5249V26.6407H38.4408V27.3528ZM37.2196 27.3528H36.3037V26.6407H37.2196V27.3528ZM35.9984 27.3528H35.0826V26.6407H35.9984V27.3528ZM34.7773 27.3528H33.8614V26.6407H34.7773V27.3528ZM33.5561 27.3528H32.6402V26.6407H33.5561V27.3528ZM32.3349 27.3528H31.419V26.6407H32.3349V27.3528ZM31.1137 27.3528H30.1978V26.6407H31.1137V27.3528ZM29.8925 27.3528H28.9766V26.6407H29.8925V27.3528ZM28.6714 27.3528H27.7555V26.6407H28.6714V27.3528ZM27.4502 27.3528H26.5343V26.6407H27.4502V27.3528ZM26.229 27.3528H25.3131V26.6407H26.229V27.3528ZM25.0078 27.3528H24.0919V26.6407H25.0078V27.3528ZM23.7866 27.3528H22.8707V26.6407H23.7866V27.3528ZM22.5654 27.3528H21.6495V26.6407H22.5654V27.3528ZM21.3442 27.3528H20.4284V26.6407H21.3442V27.3528ZM20.1231 27.3528H19.2072V26.6407H20.1231V27.3528ZM18.9019 27.3528H17.986V26.6407H18.9019V27.3528ZM17.6807 27.3528H16.7648V26.6407H17.6807V27.3528ZM16.4595 27.3528H15.5436V26.6407H16.4595V27.3528ZM15.2383 27.3528H14.3224V26.6407H15.2383V27.3528ZM14.0171 27.3528H13.1013V26.6407H14.0171V27.3528ZM12.796 27.3528H11.8801V26.6407H12.796V27.3528ZM11.5748 27.3528H10.6589V26.6407H11.5748V27.3528ZM10.3536 27.3528H9.4377V26.6407H10.3536V27.3528ZM9.13241 27.3528H8.21652V26.6407H9.13241V27.3528ZM7.91122 27.3528H6.99534V26.6407H7.91122V27.3528ZM6.69004 27.3528H5.77415V26.6407H6.69004V27.3528ZM5.46886 27.3528H4.55297V26.6407H5.46886V27.3528ZM4.24767 27.3528H3.33178V26.6407H4.24767V27.3528ZM3.02649 27.3528H2.1106V26.6407H3.02649V27.3528ZM1.8053 27.3528H0.889418V26.6407H1.8053V27.3528ZM0.584125 27.3528H-0.292124V26.5945H0.318468V26.9968H0.0131723V26.6407H0.584125V27.3528ZM-0.292124 26.2385V25.1703H0.318468V26.2385H-0.292124ZM-0.292124 24.8143V23.7461H0.318468V24.8143H-0.292124ZM-0.292124 23.3901V22.322H0.318468V23.3901H-0.292124ZM-0.292124 21.9659V20.8978H0.318468V21.9659H-0.292124ZM-0.292124 20.5417V19.4736H0.318468V20.5417H-0.292124ZM-0.292124 19.1175V18.0494H0.318468V19.1175H-0.292124ZM-0.292124 17.6934V16.6252H0.318468V17.6934H-0.292124ZM-0.292124 16.2692V15.201H0.318468V16.2692H-0.292124ZM-0.292124 14.845V13.7769H0.318468V14.845H-0.292124ZM-0.292124 13.4208V12.3527H0.318468V13.4208H-0.292124ZM-0.292124 11.9966V10.9285H0.318468V11.9966H-0.292124ZM-0.292124 10.5724V9.50431H0.318468V10.5724H-0.292124ZM-0.292124 9.14826V8.08013H0.318468V9.14826H-0.292124ZM-0.292124 7.72407V6.65594H0.318468V7.72407H-0.292124ZM-0.292124 6.2999V5.23177H0.318468V6.2999H-0.292124ZM-0.292124 4.87572V3.80758H0.318468V4.87572H-0.292124ZM-0.292124 3.45153V2.3834H0.318468V3.45153H-0.292124ZM-0.292124 2.02735V0.959212H0.318468V2.02735H-0.292124ZM-0.292124 0.603161V-0.37085H0.92906V0.341242H0.0131723V-0.014804H0.318468V0.603161H-0.292124Z" fill="var(--fill-0, #C2FDFF)"/>
</g>
</g>
</svg>
