<svg preserveAspectRatio="none" width="100%" height="100%" overflow="visible" style="display: block;" viewBox="0 0 31.584 11.496" fill="none" xmlns="http://www.w3.org/2000/svg">
<g id="Clip path group">
<mask id="mask0_167_136" style="mask-type:luminance" maskUnits="userSpaceOnUse" x="0" y="0" width="32" height="12">
<path id="Vector" fill-rule="evenodd" clip-rule="evenodd" d="M2.93851e-05 2.26498e-06H31.584V11.496H2.93851e-05V2.26498e-06Z" fill="var(--fill-0, white)"/>
</mask>
<g mask="url(#mask0_167_136)">
<g id="Group">
<path id="Vector_2" d="M0.0051955 -0.00260285H31.5928V11.4969H0.0051955V-0.00260285Z" fill="var(--fill-0, white)"/>
<path id="Vector_3" d="M0.71982 -0.104658H1.33213V0.0994437H0.71982V-0.104658ZM1.43418 -0.104658H2.04648V0.0994437H1.43418V-0.104658ZM2.14854 -0.104658H2.76084V0.0994437H2.14854V-0.104658ZM2.86289 -0.104658H3.4752V0.0994437H2.86289V-0.104658ZM3.57725 -0.104658H4.18956V0.0994437H3.57725V-0.104658ZM4.29161 -0.104658H4.90392V0.0994437H4.29161V-0.104658ZM5.00597 -0.104658H5.61827V0.0994437H5.00597V-0.104658ZM5.72032 -0.104658H6.33263V0.0994437H5.72032V-0.104658ZM6.43468 -0.104658H7.04699V0.0994437H6.43468V-0.104658ZM7.14904 -0.104658H7.76135V0.0994437H7.14904V-0.104658ZM7.8634 -0.104658H8.4757V0.0994437H7.8634V-0.104658ZM8.57776 -0.104658H9.19006V0.0994437H8.57776V-0.104658ZM9.29211 -0.104658H9.90442V0.0994437H9.29211V-0.104658ZM10.0065 -0.104658H10.6188V0.0994437H10.0065V-0.104658ZM10.7208 -0.104658H11.3331V0.0994437H10.7208V-0.104658ZM11.4352 -0.104658H12.0475V0.0994437H11.4352V-0.104658ZM12.1495 -0.104658H12.7619V0.0994437H12.1495V-0.104658ZM12.8639 -0.104658H13.4762V0.0994437H12.8639V-0.104658ZM13.5783 -0.104658H14.1906V0.0994437H13.5783V-0.104658ZM14.2926 -0.104658H14.9049V0.0994437H14.2926V-0.104658ZM15.007 -0.104658H15.6193V0.0994437H15.007V-0.104658ZM15.7213 -0.104658H16.3336V0.0994437H15.7213V-0.104658ZM16.4357 -0.104658H17.048V0.0994437H16.4357V-0.104658ZM17.15 -0.104658H17.7624V0.0994437H17.15V-0.104658ZM17.8644 -0.104658H18.4767V0.0994437H17.8644V-0.104658ZM18.5788 -0.104658H19.1911V0.0994437H18.5788V-0.104658ZM19.2931 -0.104658H19.9054V0.0994437H19.2931V-0.104658ZM20.0075 -0.104658H20.6198V0.0994437H20.0075V-0.104658ZM20.7218 -0.104658H21.3341V0.0994437H20.7218V-0.104658ZM21.4362 -0.104658H22.0485V0.0994437H21.4362V-0.104658ZM22.1506 -0.104658H22.7629V0.0994437H22.1506V-0.104658ZM22.8649 -0.104658H23.4772V0.0994437H22.8649V-0.104658ZM23.5793 -0.104658H24.1916V0.0994437H23.5793V-0.104658ZM24.2936 -0.104658H24.9059V0.0994437H24.2936V-0.104658ZM25.008 -0.104658H25.6203V0.0994437H25.008V-0.104658ZM25.7223 -0.104658H26.3346V0.0994437H25.7223V-0.104658ZM26.4367 -0.104658H27.049V0.0994437H26.4367V-0.104658ZM27.1511 -0.104658H27.7634V0.0994437H27.1511V-0.104658ZM27.8654 -0.104658H28.4777V0.0994437H27.8654V-0.104658ZM28.5798 -0.104658H29.1921V0.0994437H28.5798V-0.104658ZM29.2941 -0.104658H29.9064V0.0994437H29.2941V-0.104658ZM30.0085 -0.104658H30.6208V0.0994437H30.0085V-0.104658ZM30.7228 -0.104658H31.3352V0.0994437H30.7228V-0.104658ZM31.4372 -0.104658H31.6946V0.454402H31.4904V-0.00260737H31.5925V0.0994437H31.4372V-0.104658ZM31.6946 0.556451V1.16876H31.4904V0.556451H31.6946ZM31.6946 1.27081V1.88312H31.4904V1.27081H31.6946ZM31.6946 1.98517V2.59747H31.4904V1.98517H31.6946ZM31.6946 2.69953V3.31183H31.4904V2.69953H31.6946ZM31.6946 3.41388V4.02619H31.4904V3.41388H31.6946ZM31.6946 4.12824V4.74055H31.4904V4.12824H31.6946ZM31.6946 4.8426V5.45491H31.4904V4.8426H31.6946ZM31.6946 5.55696V6.16927H31.4904V5.55696H31.6946ZM31.6946 6.27131V6.88362H31.4904V6.27131H31.6946ZM31.6946 6.98567V7.59798H31.4904V6.98567H31.6946ZM31.6946 7.70003V8.31234H31.4904V7.70003H31.6946ZM31.6946 8.41439V9.02669H31.4904V8.41439H31.6946ZM31.6946 9.12875V9.74105H31.4904V9.12875H31.6946ZM31.6946 9.8431V10.4554H31.4904V9.8431H31.6946ZM31.6946 10.5575V11.1698H31.4904V10.5575H31.6946ZM31.6946 11.2718V11.5994H31.2057V11.3953H31.5925V11.4974H31.4904V11.2718H31.6946ZM31.1037 11.5994H30.4914V11.3953H31.1037V11.5994ZM30.3893 11.5994H29.777V11.3953H30.3893V11.5994ZM29.675 11.5994H29.0627V11.3953H29.675V11.5994ZM28.9606 11.5994H28.3483V11.3953H28.9606V11.5994ZM28.2463 11.5994H27.634V11.3953H28.2463V11.5994ZM27.5319 11.5994H26.9196V11.3953H27.5319V11.5994ZM26.8175 11.5994H26.2052V11.3953H26.8175V11.5994ZM26.1032 11.5994H25.4909V11.3953H26.1032V11.5994ZM25.3888 11.5994H24.7765V11.3953H25.3888V11.5994ZM24.6745 11.5994H24.0622V11.3953H24.6745V11.5994ZM23.9601 11.5994H23.3478V11.3953H23.9601V11.5994ZM23.2458 11.5994H22.6335V11.3953H23.2458V11.5994ZM22.5314 11.5994H21.9191V11.3953H22.5314V11.5994ZM21.817 11.5994H21.2047V11.3953H21.817V11.5994ZM21.1027 11.5994H20.4904V11.3953H21.1027V11.5994ZM20.3883 11.5994H19.776V11.3953H20.3883V11.5994ZM19.674 11.5994H19.0617V11.3953H19.674V11.5994ZM18.9596 11.5994H18.3473V11.3953H18.9596V11.5994ZM18.2453 11.5994H17.633V11.3953H18.2453V11.5994ZM17.5309 11.5994H16.9186V11.3953H17.5309V11.5994ZM16.8165 11.5994H16.2042V11.3953H16.8165V11.5994ZM16.1022 11.5994H15.4899V11.3953H16.1022V11.5994ZM15.3878 11.5994H14.7755V11.3953H15.3878V11.5994ZM14.6735 11.5994H14.0612V11.3953H14.6735V11.5994ZM13.9591 11.5994H13.3468V11.3953H13.9591V11.5994ZM13.2447 11.5994H12.6324V11.3953H13.2447V11.5994ZM12.5304 11.5994H11.9181V11.3953H12.5304V11.5994ZM11.816 11.5994H11.2037V11.3953H11.816V11.5994ZM11.1017 11.5994H10.4894V11.3953H11.1017V11.5994ZM10.3873 11.5994H9.77501V11.3953H10.3873V11.5994ZM9.67296 11.5994H9.06065V11.3953H9.67296V11.5994ZM8.9586 11.5994H8.3463V11.3953H8.9586V11.5994ZM8.24425 11.5994H7.63194V11.3953H8.24425V11.5994ZM7.52989 11.5994H6.91758V11.3953H7.52989V11.5994ZM6.81553 11.5994H6.20323V11.3953H6.81553V11.5994ZM6.10117 11.5994H5.48887V11.3953H6.10117V11.5994ZM5.38681 11.5994H4.77451V11.3953H5.38681V11.5994ZM4.67246 11.5994H4.06015V11.3953H4.67246V11.5994ZM3.9581 11.5994H3.34579V11.3953H3.9581V11.5994ZM3.24375 11.5994H2.63144V11.3953H3.24375V11.5994ZM2.52938 11.5994H1.91708V11.3953H2.52938V11.5994ZM1.81502 11.5994H1.20272V11.3953H1.81502V11.5994ZM1.10067 11.5994H0.488363V11.3953H1.10067V11.5994ZM0.38631 11.5994H-0.0965892V11.2659H0.107513V11.4974H0.00546195V11.3953H0.38631V11.5994ZM-0.0965892 11.1639V10.5516H0.107513V11.1639H-0.0965892ZM-0.0965892 10.4495V9.8372H0.107513V10.4495H-0.0965892ZM-0.0965892 9.73515V9.12284H0.107513V9.73515H-0.0965892ZM-0.0965892 9.02079V8.40848H0.107513V9.02079H-0.0965892ZM-0.0965892 8.30643V7.69412H0.107513V8.30643H-0.0965892ZM-0.0965892 7.59207V6.97977H0.107513V7.59207H-0.0965892ZM-0.0965892 6.87772V6.26541H0.107513V6.87772H-0.0965892ZM-0.0965892 6.16336V5.55105H0.107513V6.16336H-0.0965892ZM-0.0965892 5.449V4.8367H0.107513V5.449H-0.0965892ZM-0.0965892 4.73464V4.12234H0.107513V4.73464H-0.0965892ZM-0.0965892 4.02028V3.40798H0.107513V4.02028H-0.0965892ZM-0.0965892 3.30593V2.69362H0.107513V3.30593H-0.0965892ZM-0.0965892 2.59157V1.97926H0.107513V2.59157H-0.0965892ZM-0.0965892 1.87722V1.26491H0.107513V1.87722H-0.0965892ZM-0.0965892 1.16285V0.550547H0.107513V1.16285H-0.0965892ZM-0.0965892 0.448495V-0.104658H0.617769V0.0994437H0.00546195V-0.00260737H0.107513V0.448495H-0.0965892Z" fill="var(--fill-0, #F6D02B)"/>
</g>
</g>
</g>
</svg>
