<svg preserveAspectRatio="none" width="100%" height="100%" overflow="visible" style="display: block;" viewBox="0 0 31.584 11.496" fill="none" xmlns="http://www.w3.org/2000/svg">
<g id="Clip path group">
<mask id="mask0_167_42" style="mask-type:luminance" maskUnits="userSpaceOnUse" x="0" y="0" width="32" height="12">
<path id="Vector" fill-rule="evenodd" clip-rule="evenodd" d="M0 2.26498e-06H31.584V11.496H0V2.26498e-06Z" fill="var(--fill-0, white)"/>
</mask>
<g mask="url(#mask0_167_42)">
<g id="Group">
<path id="Vector_2" d="M0.00142688 -0.00125518H31.589V11.4983H0.00142688V-0.00125518Z" fill="var(--fill-0, white)"/>
<path id="Vector_3" d="M0.71608 -0.103306H1.32839V0.100796H0.71608V-0.103306ZM1.43044 -0.103306H2.04274V0.100796H1.43044V-0.103306ZM2.1448 -0.103306H2.7571V0.100796H2.1448V-0.103306ZM2.85915 -0.103306H3.47146V0.100796H2.85915V-0.103306ZM3.57351 -0.103306H4.18582V0.100796H3.57351V-0.103306ZM4.28787 -0.103306H4.90018V0.100796H4.28787V-0.103306ZM5.00223 -0.103306H5.61453V0.100796H5.00223V-0.103306ZM5.71659 -0.103306H6.32889V0.100796H5.71659V-0.103306ZM6.43094 -0.103306H7.04325V0.100796H6.43094V-0.103306ZM7.1453 -0.103306H7.75761V0.100796H7.1453V-0.103306ZM7.85966 -0.103306H8.47197V0.100796H7.85966V-0.103306ZM8.57402 -0.103306H9.18632V0.100796H8.57402V-0.103306ZM9.28837 -0.103306H9.90068V0.100796H9.28837V-0.103306ZM10.0027 -0.103306H10.615V0.100796H10.0027V-0.103306ZM10.7171 -0.103306H11.3294V0.100796H10.7171V-0.103306ZM11.4314 -0.103306H12.0438V0.100796H11.4314V-0.103306ZM12.1458 -0.103306H12.7581V0.100796H12.1458V-0.103306ZM12.8602 -0.103306H13.4725V0.100796H12.8602V-0.103306ZM13.5745 -0.103306H14.1868V0.100796H13.5745V-0.103306ZM14.2889 -0.103306H14.9012V0.100796H14.2889V-0.103306ZM15.0032 -0.103306H15.6155V0.100796H15.0032V-0.103306ZM15.7176 -0.103306H16.3299V0.100796H15.7176V-0.103306ZM16.432 -0.103306H17.0443V0.100796H16.432V-0.103306ZM17.1463 -0.103306H17.7586V0.100796H17.1463V-0.103306ZM17.8607 -0.103306H18.473V0.100796H17.8607V-0.103306ZM18.575 -0.103306H19.1873V0.100796H18.575V-0.103306ZM19.2894 -0.103306H19.9017V0.100796H19.2894V-0.103306ZM20.0037 -0.103306H20.616V0.100796H20.0037V-0.103306ZM20.7181 -0.103306H21.3304V0.100796H20.7181V-0.103306ZM21.4325 -0.103306H22.0448V0.100796H21.4325V-0.103306ZM22.1468 -0.103306H22.7591V0.100796H22.1468V-0.103306ZM22.8612 -0.103306H23.4735V0.100796H22.8612V-0.103306ZM23.5755 -0.103306H24.1878V0.100796H23.5755V-0.103306ZM24.2899 -0.103306H24.9022V0.100796H24.2899V-0.103306ZM25.0042 -0.103306H25.6166V0.100796H25.0042V-0.103306ZM25.7186 -0.103306H26.3309V0.100796H25.7186V-0.103306ZM26.433 -0.103306H27.0453V0.100796H26.433V-0.103306ZM27.1473 -0.103306H27.7596V0.100796H27.1473V-0.103306ZM27.8617 -0.103306H28.474V0.100796H27.8617V-0.103306ZM28.576 -0.103306H29.1883V0.100796H28.576V-0.103306ZM29.2904 -0.103306H29.9027V0.100796H29.2904V-0.103306ZM30.0047 -0.103306H30.6171V0.100796H30.0047V-0.103306ZM30.7191 -0.103306H31.3314V0.100796H30.7191V-0.103306ZM31.4335 -0.103306H31.6908V0.455755H31.4867V-0.00125488H31.5888V0.100796H31.4335V-0.103306ZM31.6908 0.557804V1.17011H31.4867V0.557804H31.6908ZM31.6908 1.27216V1.88447H31.4867V1.27216H31.6908ZM31.6908 1.98652V2.59883H31.4867V1.98652H31.6908ZM31.6908 2.70088V3.31319H31.4867V2.70088H31.6908ZM31.6908 3.41524V4.02754H31.4867V3.41524H31.6908ZM31.6908 4.12959V4.7419H31.4867V4.12959H31.6908ZM31.6908 4.84395V5.45626H31.4867V4.84395H31.6908ZM31.6908 5.55831V6.17062H31.4867V5.55831H31.6908ZM31.6908 6.27267V6.88497H31.4867V6.27267H31.6908ZM31.6908 6.98702V7.59933H31.4867V6.98702H31.6908ZM31.6908 7.70138V8.31369H31.4867V7.70138H31.6908ZM31.6908 8.41574V9.02805H31.4867V8.41574H31.6908ZM31.6908 9.1301V9.74241H31.4867V9.1301H31.6908ZM31.6908 9.84446V10.4568H31.4867V9.84446H31.6908ZM31.6908 10.5588V11.1711H31.4867V10.5588H31.6908ZM31.6908 11.2732V11.6008H31.202V11.3967H31.5888V11.4987H31.4867V11.2732H31.6908ZM31.1 11.6008H30.4876V11.3967H31.1V11.6008ZM30.3856 11.6008H29.7733V11.3967H30.3856V11.6008ZM29.6712 11.6008H29.0589V11.3967H29.6712V11.6008ZM28.9569 11.6008H28.3446V11.3967H28.9569V11.6008ZM28.2425 11.6008H27.6302V11.3967H28.2425V11.6008ZM27.5282 11.6008H26.9159V11.3967H27.5282V11.6008ZM26.8138 11.6008H26.2015V11.3967H26.8138V11.6008ZM26.0995 11.6008H25.4871V11.3967H26.0995V11.6008ZM25.3851 11.6008H24.7728V11.3967H25.3851V11.6008ZM24.6707 11.6008H24.0584V11.3967H24.6707V11.6008ZM23.9564 11.6008H23.3441V11.3967H23.9564V11.6008ZM23.242 11.6008H22.6297V11.3967H23.242V11.6008ZM22.5277 11.6008H21.9154V11.3967H22.5277V11.6008ZM21.8133 11.6008H21.201V11.3967H21.8133V11.6008ZM21.0989 11.6008H20.4866V11.3967H21.0989V11.6008ZM20.3846 11.6008H19.7723V11.3967H20.3846V11.6008ZM19.6702 11.6008H19.0579V11.3967H19.6702V11.6008ZM18.9559 11.6008H18.3436V11.3967H18.9559V11.6008ZM18.2415 11.6008H17.6292V11.3967H18.2415V11.6008ZM17.5272 11.6008H16.9149V11.3967H17.5272V11.6008ZM16.8128 11.6008H16.2005V11.3967H16.8128V11.6008ZM16.0984 11.6008H15.4861V11.3967H16.0984V11.6008ZM15.3841 11.6008H14.7718V11.3967H15.3841V11.6008ZM14.6697 11.6008H14.0574V11.3967H14.6697V11.6008ZM13.9554 11.6008H13.3431V11.3967H13.9554V11.6008ZM13.241 11.6008H12.6287V11.3967H13.241V11.6008ZM12.5267 11.6008H11.9143V11.3967H12.5267V11.6008ZM11.8123 11.6008H11.2V11.3967H11.8123V11.6008ZM11.0979 11.6008H10.4856V11.3967H11.0979V11.6008ZM10.3836 11.6008H9.77127V11.3967H10.3836V11.6008ZM9.66922 11.6008H9.05691V11.3967H9.66922V11.6008ZM8.95486 11.6008H8.34256V11.3967H8.95486V11.6008ZM8.24051 11.6008H7.6282V11.3967H8.24051V11.6008ZM7.52615 11.6008H6.91384V11.3967H7.52615V11.6008ZM6.81179 11.6008H6.19949V11.3967H6.81179V11.6008ZM6.09743 11.6008H5.48513V11.3967H6.09743V11.6008ZM5.38307 11.6008H4.77077V11.3967H5.38307V11.6008ZM4.66872 11.6008H4.05641V11.3967H4.66872V11.6008ZM3.95436 11.6008H3.34205V11.3967H3.95436V11.6008ZM3.24001 11.6008H2.6277V11.3967H3.24001V11.6008ZM2.52565 11.6008H1.91334V11.3967H2.52565V11.6008ZM1.81129 11.6008H1.19898V11.3967H1.81129V11.6008ZM1.09693 11.6008H0.484623V11.3967H1.09693V11.6008ZM0.382571 11.6008H-0.100329V11.2673H0.103774V11.4987H0.0017226V11.3967H0.382571V11.6008ZM-0.100329 11.1652V10.5529H0.103774V11.1652H-0.100329ZM-0.100329 10.4509V9.83855H0.103774V10.4509H-0.100329ZM-0.100329 9.7365V9.12419H0.103774V9.7365H-0.100329ZM-0.100329 9.02214V8.40984H0.103774V9.02214H-0.100329ZM-0.100329 8.30778V7.69548H0.103774V8.30778H-0.100329ZM-0.100329 7.59342V6.98112H0.103774V7.59342H-0.100329ZM-0.100329 6.87907V6.26676H0.103774V6.87907H-0.100329ZM-0.100329 6.16471V5.5524H0.103774V6.16471H-0.100329ZM-0.100329 5.45036V4.83805H0.103774V5.45036H-0.100329ZM-0.100329 4.736V4.12369H0.103774V4.736H-0.100329ZM-0.100329 4.02164V3.40933H0.103774V4.02164H-0.100329ZM-0.100329 3.30728V2.69497H0.103774V3.30728H-0.100329ZM-0.100329 2.59292V1.98061H0.103774V2.59292H-0.100329ZM-0.100329 1.87857V1.26626H0.103774V1.87857H-0.100329ZM-0.100329 1.16421V0.551899H0.103774V1.16421H-0.100329ZM-0.100329 0.449847V-0.103306H0.614029V0.100796H0.0017226V-0.00125488H0.103774V0.449847H-0.100329Z" fill="var(--fill-0, #00BD96)"/>
</g>
</g>
</g>
</svg>
