<svg preserveAspectRatio="none" width="100%" height="100%" overflow="visible" style="display: block;" viewBox="0 0 78.36 40.786" fill="none" xmlns="http://www.w3.org/2000/svg">
<g id="Clip path group">
<mask id="mask0_167_699" style="mask-type:luminance" maskUnits="userSpaceOnUse" x="0" y="0" width="79" height="41">
<path id="Vector" fill-rule="evenodd" clip-rule="evenodd" d="M0 0H78.36V40.786H0V0Z" fill="var(--fill-0, white)"/>
</mask>
<g mask="url(#mask0_167_699)">
<g id="Group">
<path id="Vector_2" d="M0.00417382 -0.00341608H78.3644V40.7941H0.00417382V-0.00341608Z" fill="var(--fill-0, white)"/>
<path id="Vector_3" d="M1.19494 -0.164377H2.21545V0.158038H1.19494V-0.164377ZM2.38554 -0.164377H3.40605V0.158038H2.38554V-0.164377ZM3.57614 -0.164377H4.59665V0.158038H3.57614V-0.164377ZM4.76673 -0.164377H5.78724V0.158038H4.76673V-0.164377ZM5.95733 -0.164377H6.97784V0.158038H5.95733V-0.164377ZM7.14792 -0.164377H8.16844V0.158038H7.14792V-0.164377ZM8.33852 -0.164377H9.35903V0.158038H8.33852V-0.164377ZM9.52912 -0.164377H10.5496V0.158038H9.52912V-0.164377ZM10.7197 -0.164377H11.7402V0.158038H10.7197V-0.164377ZM11.9103 -0.164377H12.9308V0.158038H11.9103V-0.164377ZM13.1009 -0.164377H14.1214V0.158038H13.1009V-0.164377ZM14.2915 -0.164377H15.312V0.158038H14.2915V-0.164377ZM15.4821 -0.164377H16.5026V0.158038H15.4821V-0.164377ZM16.6727 -0.164377H17.6932V0.158038H16.6727V-0.164377ZM17.8633 -0.164377H18.8838V0.158038H17.8633V-0.164377ZM19.0539 -0.164377H20.0744V0.158038H19.0539V-0.164377ZM20.2445 -0.164377H21.265V0.158038H20.2445V-0.164377ZM21.4351 -0.164377H22.4556V0.158038H21.4351V-0.164377ZM22.6257 -0.164377H23.6462V0.158038H22.6257V-0.164377ZM23.8163 -0.164377H24.8368V0.158038H23.8163V-0.164377ZM25.0069 -0.164377H26.0274V0.158038H25.0069V-0.164377ZM26.1975 -0.164377H27.218V0.158038H26.1975V-0.164377ZM27.3881 -0.164377H28.4086V0.158038H27.3881V-0.164377ZM28.5787 -0.164377H29.5992V0.158038H28.5787V-0.164377ZM29.7693 -0.164377H30.7898V0.158038H29.7693V-0.164377ZM30.9599 -0.164377H31.9804V0.158038H30.9599V-0.164377ZM32.1504 -0.164377H33.171V0.158038H32.1504V-0.164377ZM33.341 -0.164377H34.3616V0.158038H33.341V-0.164377ZM34.5316 -0.164377H35.5521V0.158038H34.5316V-0.164377ZM35.7222 -0.164377H36.7427V0.158038H35.7222V-0.164377ZM36.9128 -0.164377H37.9333V0.158038H36.9128V-0.164377ZM38.1034 -0.164377H39.1239V0.158038H38.1034V-0.164377ZM39.294 -0.164377H40.3145V0.158038H39.294V-0.164377ZM40.4846 -0.164377H41.5051V0.158038H40.4846V-0.164377ZM41.6752 -0.164377H42.6957V0.158038H41.6752V-0.164377ZM42.8658 -0.164377H43.8863V0.158038H42.8658V-0.164377ZM44.0564 -0.164377H45.0769V0.158038H44.0564V-0.164377ZM45.247 -0.164377H46.2675V0.158038H45.247V-0.164377ZM46.4376 -0.164377H47.4581V0.158038H46.4376V-0.164377ZM47.6282 -0.164377H48.6487V0.158038H47.6282V-0.164377ZM48.8188 -0.164377H49.8393V0.158038H48.8188V-0.164377ZM50.0094 -0.164377H51.0299V0.158038H50.0094V-0.164377ZM51.2 -0.164377H52.2205V0.158038H51.2V-0.164377ZM52.3906 -0.164377H53.4111V0.158038H52.3906V-0.164377ZM53.5812 -0.164377H54.6017V0.158038H53.5812V-0.164377ZM54.7718 -0.164377H55.7923V0.158038H54.7718V-0.164377ZM55.9624 -0.164377H56.9829V0.158038H55.9624V-0.164377ZM57.153 -0.164377H58.1735V0.158038H57.153V-0.164377ZM58.3436 -0.164377H59.3641V0.158038H58.3436V-0.164377ZM59.5342 -0.164377H60.5547V0.158038H59.5342V-0.164377ZM60.7248 -0.164377H61.7453V0.158038H60.7248V-0.164377ZM61.9154 -0.164377H62.9359V0.158038H61.9154V-0.164377ZM63.106 -0.164377H64.1265V0.158038H63.106V-0.164377ZM64.2965 -0.164377H65.3171V0.158038H64.2965V-0.164377ZM65.4871 -0.164377H66.5077V0.158038H65.4871V-0.164377ZM66.6777 -0.164377H67.6982V0.158038H66.6777V-0.164377ZM67.8683 -0.164377H68.8888V0.158038H67.8683V-0.164377ZM69.0589 -0.164377H70.0794V0.158038H69.0589V-0.164377ZM70.2495 -0.164377H71.27V0.158038H70.2495V-0.164377ZM71.4401 -0.164377H72.4606V0.158038H71.4401V-0.164377ZM72.6307 -0.164377H73.6512V0.158038H72.6307V-0.164377ZM73.8213 -0.164377H74.8418V0.158038H73.8213V-0.164377ZM75.0119 -0.164377H76.0324V0.158038H75.0119V-0.164377ZM76.2025 -0.164377H77.223V0.158038H76.2025V-0.164377ZM77.3931 -0.164377H78.5409V0.0373992H78.2007V-0.00316951H78.3708V0.158038H77.3931V-0.164377ZM78.5409 0.198607V1.16585H78.2007V0.198607H78.5409ZM78.5409 1.32706V2.29431H78.2007V1.32706H78.5409ZM78.5409 2.45552V3.42276H78.2007V2.45552H78.5409ZM78.5409 3.58397V4.55122H78.2007V3.58397H78.5409ZM78.5409 4.71243V5.67967H78.2007V4.71243H78.5409ZM78.5409 5.84088V6.80813H78.2007V5.84088H78.5409ZM78.5409 6.96934V7.93658H78.2007V6.96934H78.5409ZM78.5409 8.09779V9.06504H78.2007V8.09779H78.5409ZM78.5409 9.22625V10.1935H78.2007V9.22625H78.5409ZM78.5409 10.3547V11.3219H78.2007V10.3547H78.5409ZM78.5409 11.4832V12.4504H78.2007V11.4832H78.5409ZM78.5409 12.6116V13.5789H78.2007V12.6116H78.5409ZM78.5409 13.7401V14.7073H78.2007V13.7401H78.5409ZM78.5409 14.8685V15.8358H78.2007V14.8685H78.5409ZM78.5409 15.997V16.9642H78.2007V15.997H78.5409ZM78.5409 17.1254V18.0927H78.2007V17.1254H78.5409ZM78.5409 18.2539V19.2211H78.2007V18.2539H78.5409ZM78.5409 19.3823V20.3496H78.2007V19.3823H78.5409ZM78.5409 20.5108V21.478H78.2007V20.5108H78.5409ZM78.5409 21.6393V22.6065H78.2007V21.6393H78.5409ZM78.5409 22.7677V23.735H78.2007V22.7677H78.5409ZM78.5409 23.8962V24.8634H78.2007V23.8962H78.5409ZM78.5409 25.0246V25.9919H78.2007V25.0246H78.5409ZM78.5409 26.1531V27.1203H78.2007V26.1531H78.5409ZM78.5409 27.2815V28.2488H78.2007V27.2815H78.5409ZM78.5409 28.41V29.3772H78.2007V28.41H78.5409ZM78.5409 29.5384V30.5057H78.2007V29.5384H78.5409ZM78.5409 30.6669V31.6341H78.2007V30.6669H78.5409ZM78.5409 31.7954V32.7626H78.2007V31.7954H78.5409ZM78.5409 32.9238V33.8911H78.2007V32.9238H78.5409ZM78.5409 34.0523V35.0195H78.2007V34.0523H78.5409ZM78.5409 35.1807V36.148H78.2007V35.1807H78.5409ZM78.5409 36.3092V37.2764H78.2007V36.3092H78.5409ZM78.5409 37.4376V38.4049H78.2007V37.4376H78.5409ZM78.5409 38.5661V39.5333H78.2007V38.5661H78.5409ZM78.5409 39.6945V40.6618H78.2007V39.6945H78.5409ZM78.3404 40.9554H77.3199V40.633H78.3404V40.9554ZM77.1498 40.9554H76.1293V40.633H77.1498V40.9554ZM75.9592 40.9554H74.9387V40.633H75.9592V40.9554ZM74.7686 40.9554H73.7481V40.633H74.7686V40.9554ZM73.578 40.9554H72.5575V40.633H73.578V40.9554ZM72.3874 40.9554H71.3669V40.633H72.3874V40.9554ZM71.1968 40.9554H70.1763V40.633H71.1968V40.9554ZM70.0062 40.9554H68.9857V40.633H70.0062V40.9554ZM68.8156 40.9554H67.7951V40.633H68.8156V40.9554ZM67.625 40.9554H66.6045V40.633H67.625V40.9554ZM66.4345 40.9554H65.4139V40.633H66.4345V40.9554ZM65.2439 40.9554H64.2233V40.633H65.2439V40.9554ZM64.0533 40.9554H63.0327V40.633H64.0533V40.9554ZM62.8627 40.9554H61.8422V40.633H62.8627V40.9554ZM61.6721 40.9554H60.6516V40.633H61.6721V40.9554ZM60.4815 40.9554H59.461V40.633H60.4815V40.9554ZM59.2909 40.9554H58.2704V40.633H59.2909V40.9554ZM58.1003 40.9554H57.0798V40.633H58.1003V40.9554ZM56.9097 40.9554H55.8892V40.633H56.9097V40.9554ZM55.7191 40.9554H54.6986V40.633H55.7191V40.9554ZM54.5285 40.9554H53.508V40.633H54.5285V40.9554ZM53.3379 40.9554H52.3174V40.633H53.3379V40.9554ZM52.1473 40.9554H51.1268V40.633H52.1473V40.9554ZM50.9567 40.9554H49.9362V40.633H50.9567V40.9554ZM49.7661 40.9554H48.7456V40.633H49.7661V40.9554ZM48.5755 40.9554H47.555V40.633H48.5755V40.9554ZM47.3849 40.9554H46.3644V40.633H47.3849V40.9554ZM46.1943 40.9554H45.1738V40.633H46.1943V40.9554ZM45.0037 40.9554H43.9832V40.633H45.0037V40.9554ZM43.8131 40.9554H42.7926V40.633H43.8131V40.9554ZM42.6225 40.9554H41.602V40.633H42.6225V40.9554ZM41.4319 40.9554H40.4114V40.633H41.4319V40.9554ZM40.2413 40.9554H39.2208V40.633H40.2413V40.9554ZM39.0507 40.9554H38.0302V40.633H39.0507V40.9554ZM37.8601 40.9554H36.8396V40.633H37.8601V40.9554ZM36.6695 40.9554H35.649V40.633H36.6695V40.9554ZM35.479 40.9554H34.4584V40.633H35.479V40.9554ZM34.2884 40.9554H33.2678V40.633H34.2884V40.9554ZM33.0978 40.9554H32.0772V40.633H33.0978V40.9554ZM31.9072 40.9554H30.8867V40.633H31.9072V40.9554ZM30.7166 40.9554H29.6961V40.633H30.7166V40.9554ZM29.526 40.9554H28.5055V40.633H29.526V40.9554ZM28.3354 40.9554H27.3149V40.633H28.3354V40.9554ZM27.1448 40.9554H26.1243V40.633H27.1448V40.9554ZM25.9542 40.9554H24.9337V40.633H25.9542V40.9554ZM24.7636 40.9554H23.7431V40.633H24.7636V40.9554ZM23.573 40.9554H22.5525V40.633H23.573V40.9554ZM22.3824 40.9554H21.3619V40.633H22.3824V40.9554ZM21.1918 40.9554H20.1713V40.633H21.1918V40.9554ZM20.0012 40.9554H18.9807V40.633H20.0012V40.9554ZM18.8106 40.9554H17.7901V40.633H18.8106V40.9554ZM17.62 40.9554H16.5995V40.633H17.62V40.9554ZM16.4294 40.9554H15.4089V40.633H16.4294V40.9554ZM15.2388 40.9554H14.2183V40.633H15.2388V40.9554ZM14.0482 40.9554H13.0277V40.633H14.0482V40.9554ZM12.8576 40.9554H11.8371V40.633H12.8576V40.9554ZM11.667 40.9554H10.6465V40.633H11.667V40.9554ZM10.4764 40.9554H9.45592V40.633H10.4764V40.9554ZM9.28583 40.9554H8.26532V40.633H9.28583V40.9554ZM8.09524 40.9554H7.07473V40.633H8.09524V40.9554ZM6.90464 40.9554H5.88413V40.633H6.90464V40.9554ZM5.71405 40.9554H4.69353V40.633H5.71405V40.9554ZM4.52345 40.9554H3.50294V40.633H4.52345V40.9554ZM3.33285 40.9554H2.31234V40.633H3.33285V40.9554ZM2.14226 40.9554H1.12175V40.633H2.14226V40.9554ZM0.951661 40.9554H-0.165739V40.7248H0.174432V40.7942H0.00434648V40.633H0.951661V40.9554ZM-0.165739 40.5636V39.5964H0.174432V40.5636H-0.165739ZM-0.165739 39.4351V38.4679H0.174432V39.4351H-0.165739ZM-0.165739 38.3067V37.3394H0.174432V38.3067H-0.165739ZM-0.165739 37.1782V36.211H0.174432V37.1782H-0.165739ZM-0.165739 36.0498V35.0825H0.174432V36.0498H-0.165739ZM-0.165739 34.9213V33.9541H0.174432V34.9213H-0.165739ZM-0.165739 33.7929V32.8256H0.174432V33.7929H-0.165739ZM-0.165739 32.6644V31.6972H0.174432V32.6644H-0.165739ZM-0.165739 31.5359V30.5687H0.174432V31.5359H-0.165739ZM-0.165739 30.4075V29.4402H0.174432V30.4075H-0.165739ZM-0.165739 29.279V28.3118H0.174432V29.279H-0.165739ZM-0.165739 28.1506V27.1833H0.174432V28.1506H-0.165739ZM-0.165739 27.0221V26.0549H0.174432V27.0221H-0.165739ZM-0.165739 25.8937V24.9264H0.174432V25.8937H-0.165739ZM-0.165739 24.7652V23.798H0.174432V24.7652H-0.165739ZM-0.165739 23.6368V22.6695H0.174432V23.6368H-0.165739ZM-0.165739 22.5083V21.5411H0.174432V22.5083H-0.165739ZM-0.165739 21.3799V20.4126H0.174432V21.3799H-0.165739ZM-0.165739 20.2514V19.2841H0.174432V20.2514H-0.165739ZM-0.165739 19.1229V18.1557H0.174432V19.1229H-0.165739ZM-0.165739 17.9945V17.0272H0.174432V17.9945H-0.165739ZM-0.165739 16.866V15.8988H0.174432V16.866H-0.165739ZM-0.165739 15.7376V14.7703H0.174432V15.7376H-0.165739ZM-0.165739 14.6091V13.6419H0.174432V14.6091H-0.165739ZM-0.165739 13.4807V12.5134H0.174432V13.4807H-0.165739ZM-0.165739 12.3522V11.385H0.174432V12.3522H-0.165739ZM-0.165739 11.2238V10.2565H0.174432V11.2238H-0.165739ZM-0.165739 10.0953V9.12805H0.174432V10.0953H-0.165739ZM-0.165739 8.96685V7.9996H0.174432V8.96685H-0.165739ZM-0.165739 7.83839V6.87114H0.174432V7.83839H-0.165739ZM-0.165739 6.70994V5.74269H0.174432V6.70994H-0.165739ZM-0.165739 5.58148V4.61423H0.174432V5.58148H-0.165739ZM-0.165739 4.45303V3.48578H0.174432V4.45303H-0.165739ZM-0.165739 3.32457V2.35732H0.174432V3.32457H-0.165739ZM-0.165739 2.19612V1.22887H0.174432V2.19612H-0.165739ZM-0.165739 1.06766V0.100414H0.174432V1.06766H-0.165739ZM0.00434648 -0.164377H1.02486V0.158038H0.00434648V-0.164377Z" fill="var(--fill-0, #00BD96)"/>
</g>
</g>
</g>
</svg>
