<svg preserveAspectRatio="none" width="100%" height="100%" overflow="visible" style="display: block;" viewBox="0 0 31.584 11.496" fill="none" xmlns="http://www.w3.org/2000/svg">
<g id="Clip path group">
<mask id="mask0_167_443" style="mask-type:luminance" maskUnits="userSpaceOnUse" x="0" y="0" width="32" height="12">
<path id="Vector" fill-rule="evenodd" clip-rule="evenodd" d="M0 0H31.584V11.496H0V0Z" fill="var(--fill-0, white)"/>
</mask>
<g mask="url(#mask0_167_443)">
<g id="Group">
<path id="Vector_2" d="M-0.00963713 0.000912219H31.578V11.5004H-0.00963713V0.000912219Z" fill="var(--fill-0, white)"/>
<path id="Vector_3" d="M0.70503 -0.101117H1.31734V0.102986H0.70503V-0.101117ZM1.41939 -0.101117H2.03169V0.102986H1.41939V-0.101117ZM2.13375 -0.101117H2.74605V0.102986H2.13375V-0.101117ZM2.8481 -0.101117H3.46041V0.102986H2.8481V-0.101117ZM3.56246 -0.101117H4.17477V0.102986H3.56246V-0.101117ZM4.27682 -0.101117H4.88913V0.102986H4.27682V-0.101117ZM4.99118 -0.101117H5.60348V0.102986H4.99118V-0.101117ZM5.70554 -0.101117H6.31784V0.102986H5.70554V-0.101117ZM6.41989 -0.101117H7.0322V0.102986H6.41989V-0.101117ZM7.13425 -0.101117H7.74656V0.102986H7.13425V-0.101117ZM7.84861 -0.101117H8.46091V0.102986H7.84861V-0.101117ZM8.56297 -0.101117H9.17527V0.102986H8.56297V-0.101117ZM9.27732 -0.101117H9.88963V0.102986H9.27732V-0.101117ZM9.99168 -0.101117H10.604V0.102986H9.99168V-0.101117ZM10.706 -0.101117H11.3183V0.102986H10.706V-0.101117ZM11.4204 -0.101117H12.0327V0.102986H11.4204V-0.101117ZM12.1348 -0.101117H12.7471V0.102986H12.1348V-0.101117ZM12.8491 -0.101117H13.4614V0.102986H12.8491V-0.101117ZM13.5635 -0.101117H14.1758V0.102986H13.5635V-0.101117ZM14.2778 -0.101117H14.8901V0.102986H14.2778V-0.101117ZM14.9922 -0.101117H15.6045V0.102986H14.9922V-0.101117ZM15.7065 -0.101117H16.3188V0.102986H15.7065V-0.101117ZM16.4209 -0.101117H17.0332V0.102986H16.4209V-0.101117ZM17.1353 -0.101117H17.7476V0.102986H17.1353V-0.101117ZM17.8496 -0.101117H18.4619V0.102986H17.8496V-0.101117ZM18.564 -0.101117H19.1763V0.102986H18.564V-0.101117ZM19.2783 -0.101117H19.8906V0.102986H19.2783V-0.101117ZM19.9927 -0.101117H20.605V0.102986H19.9927V-0.101117ZM20.707 -0.101117H21.3194V0.102986H20.707V-0.101117ZM21.4214 -0.101117H22.0337V0.102986H21.4214V-0.101117ZM22.1358 -0.101117H22.7481V0.102986H22.1358V-0.101117ZM22.8501 -0.101117H23.4624V0.102986H22.8501V-0.101117ZM23.5645 -0.101117H24.1768V0.102986H23.5645V-0.101117ZM24.2788 -0.101117H24.8911V0.102986H24.2788V-0.101117ZM24.9932 -0.101117H25.6055V0.102986H24.9932V-0.101117ZM25.7076 -0.101117H26.3199V0.102986H25.7076V-0.101117ZM26.4219 -0.101117H27.0342V0.102986H26.4219V-0.101117ZM27.1363 -0.101117H27.7486V0.102986H27.1363V-0.101117ZM27.8506 -0.101117H28.4629V0.102986H27.8506V-0.101117ZM28.565 -0.101117H29.1773V0.102986H28.565V-0.101117ZM29.2793 -0.101117H29.8916V0.102986H29.2793V-0.101117ZM29.9937 -0.101117H30.606V0.102986H29.9937V-0.101117ZM30.7081 -0.101117H31.3204V0.102986H30.7081V-0.101117ZM31.4224 -0.101117H31.6798V0.457944H31.4757V0.000934507H31.5777V0.102986H31.4224V-0.101117ZM31.6798 0.559993V1.1723H31.4757V0.559993H31.6798ZM31.6798 1.27435V1.88666H31.4757V1.27435H31.6798ZM31.6798 1.98871V2.60102H31.4757V1.98871H31.6798ZM31.6798 2.70307V3.31538H31.4757V2.70307H31.6798ZM31.6798 3.41742V4.02973H31.4757V3.41742H31.6798ZM31.6798 4.13178V4.74409H31.4757V4.13178H31.6798ZM31.6798 4.84614V5.45845H31.4757V4.84614H31.6798ZM31.6798 5.5605V6.17281H31.4757V5.5605H31.6798ZM31.6798 6.27486V6.88716H31.4757V6.27486H31.6798ZM31.6798 6.98921V7.60152H31.4757V6.98921H31.6798ZM31.6798 7.70357V8.31588H31.4757V7.70357H31.6798ZM31.6798 8.41793V9.03024H31.4757V8.41793H31.6798ZM31.6798 9.13229V9.7446H31.4757V9.13229H31.6798ZM31.6798 9.84665V10.459H31.4757V9.84665H31.6798ZM31.6798 10.561V11.1733H31.4757V10.561H31.6798ZM31.6798 11.2754V11.603H31.191V11.3989H31.5777V11.5009H31.4757V11.2754H31.6798ZM31.0889 11.603H30.4766V11.3989H31.0889V11.603ZM30.3745 11.603H29.7622V11.3989H30.3745V11.603ZM29.6602 11.603H29.0479V11.3989H29.6602V11.603ZM28.9458 11.603H28.3335V11.3989H28.9458V11.603ZM28.2315 11.603H27.6192V11.3989H28.2315V11.603ZM27.5171 11.603H26.9048V11.3989H27.5171V11.603ZM26.8028 11.603H26.1905V11.3989H26.8028V11.603ZM26.0884 11.603H25.4761V11.3989H26.0884V11.603ZM25.374 11.603H24.7617V11.3989H25.374V11.603ZM24.6597 11.603H24.0474V11.3989H24.6597V11.603ZM23.9453 11.603H23.333V11.3989H23.9453V11.603ZM23.231 11.603H22.6187V11.3989H23.231V11.603ZM22.5166 11.603H21.9043V11.3989H22.5166V11.603ZM21.8023 11.603H21.1899V11.3989H21.8023V11.603ZM21.0879 11.603H20.4756V11.3989H21.0879V11.603ZM20.3735 11.603H19.7612V11.3989H20.3735V11.603ZM19.6592 11.603H19.0469V11.3989H19.6592V11.603ZM18.9448 11.603H18.3325V11.3989H18.9448V11.603ZM18.2305 11.603H17.6182V11.3989H18.2305V11.603ZM17.5161 11.603H16.9038V11.3989H17.5161V11.603ZM16.8017 11.603H16.1894V11.3989H16.8017V11.603ZM16.0874 11.603H15.4751V11.3989H16.0874V11.603ZM15.373 11.603H14.7607V11.3989H15.373V11.603ZM14.6587 11.603H14.0464V11.3989H14.6587V11.603ZM13.9443 11.603H13.332V11.3989H13.9443V11.603ZM13.23 11.603H12.6177V11.3989H13.23V11.603ZM12.5156 11.603H11.9033V11.3989H12.5156V11.603ZM11.8012 11.603H11.1889V11.3989H11.8012V11.603ZM11.0869 11.603H10.4746V11.3989H11.0869V11.603ZM10.3725 11.603H9.76022V11.3989H10.3725V11.603ZM9.65817 11.603H9.04586V11.3989H9.65817V11.603ZM8.94381 11.603H8.33151V11.3989H8.94381V11.603ZM8.22946 11.603H7.61715V11.3989H8.22946V11.603ZM7.5151 11.603H6.90279V11.3989H7.5151V11.603ZM6.80074 11.603H6.18844V11.3989H6.80074V11.603ZM6.08638 11.603H5.47408V11.3989H6.08638V11.603ZM5.37202 11.603H4.75972V11.3989H5.37202V11.603ZM4.65767 11.603H4.04536V11.3989H4.65767V11.603ZM3.94331 11.603H3.331V11.3989H3.94331V11.603ZM3.22896 11.603H2.61665V11.3989H3.22896V11.603ZM2.5146 11.603H1.90229V11.3989H2.5146V11.603ZM1.80023 11.603H1.18793V11.3989H1.80023V11.603ZM1.08588 11.603H0.473573V11.3989H1.08588V11.603ZM0.371521 11.603H-0.111379V11.2695H0.0927232V11.5009H-0.00932792V11.3989H0.371521V11.603ZM-0.111379 11.1674V10.5551H0.0927232V11.1674H-0.111379ZM-0.111379 10.453V9.84074H0.0927232V10.453H-0.111379ZM-0.111379 9.73869V9.12638H0.0927232V9.73869H-0.111379ZM-0.111379 9.02433V8.41203H0.0927232V9.02433H-0.111379ZM-0.111379 8.30997V7.69767H0.0927232V8.30997H-0.111379ZM-0.111379 7.59561V6.98331H0.0927232V7.59561H-0.111379ZM-0.111379 6.88126V6.26895H0.0927232V6.88126H-0.111379ZM-0.111379 6.1669V5.55459H0.0927232V6.1669H-0.111379ZM-0.111379 5.45255V4.84024H0.0927232V5.45255H-0.111379ZM-0.111379 4.73819V4.12588H0.0927232V4.73819H-0.111379ZM-0.111379 4.02383V3.41152H0.0927232V4.02383H-0.111379ZM-0.111379 3.30947V2.69716H0.0927232V3.30947H-0.111379ZM-0.111379 2.59511V1.9828H0.0927232V2.59511H-0.111379ZM-0.111379 1.88076V1.26845H0.0927232V1.88076H-0.111379ZM-0.111379 1.1664V0.554089H0.0927232V1.1664H-0.111379ZM-0.111379 0.452036V-0.101117H0.602979V0.102986H-0.00932792V0.000934507H0.0927232V0.452036H-0.111379Z" fill="var(--fill-0, #00BD96)"/>
</g>
</g>
</g>
</svg>
