<svg preserveAspectRatio="none" width="100%" height="100%" overflow="visible" style="display: block;" viewBox="0 0 98 37.392" fill="none" xmlns="http://www.w3.org/2000/svg">
<g id="Border dotted">
<mask id="mask0_346_169" style="mask-type:luminance" maskUnits="userSpaceOnUse" x="0" y="0" width="98" height="38">
<path id="Vector" fill-rule="evenodd" clip-rule="evenodd" d="M2.82526e-05 0H98V37.392H2.82526e-05V0Z" fill="var(--fill-0, white)"/>
</mask>
<g mask="url(#mask0_346_169)">
<path id="Vector_2" d="M-0.249779 35.6147V34.084H0.26303V35.6147H-0.249779ZM-0.249779 33.8288V32.2981H0.26303V33.8288H-0.249779ZM-0.249779 32.043V30.5122H0.26303V32.043H-0.249779ZM-0.249779 30.2571V28.7263H0.26303V30.2571H-0.249779ZM-0.249779 28.4712V26.9404H0.26303V28.4712H-0.249779ZM-0.249779 26.6853V25.1545H0.26303V26.6853H-0.249779ZM-0.249779 24.8994V23.3686H0.26303V24.8994H-0.249779ZM-0.249779 23.1135V21.5827H0.26303V23.1135H-0.249779ZM-0.249779 21.3276V19.7968H0.26303V21.3276H-0.249779ZM-0.249779 19.5417V18.0109H0.26303V19.5417H-0.249779ZM-0.249779 17.7558V16.225H0.26303V17.7558H-0.249779ZM-0.249779 15.9699V14.4391H0.26303V15.9699H-0.249779ZM-0.249779 14.184V12.6532H0.26303V14.184H-0.249779ZM-0.249779 12.3981V10.8673H0.26303V12.3981H-0.249779ZM-0.249779 10.6122V9.08145H0.26303V10.6122H-0.249779ZM-0.249779 8.82632V7.29556H0.26303V8.82632H-0.249779ZM-0.249779 7.04043V5.50966H0.26303V7.04043H-0.249779ZM-0.249779 5.25453V3.72377H0.26303V5.25453H-0.249779ZM-0.249779 3.46864V1.93787H0.26303V3.46864H-0.249779ZM-0.249779 1.68275V0.151979H0.26303V1.68275H-0.249779ZM0.111169 -0.254254H1.6496V0.256002H0.111169V-0.254254ZM1.906 -0.254254H3.44443V0.256002H1.906V-0.254254ZM3.70083 -0.254254H5.23926V0.256002H3.70083V-0.254254ZM5.49566 -0.254254H7.03409V0.256002H5.49566V-0.254254ZM7.2905 -0.254254H8.82892V0.256002H7.2905V-0.254254ZM9.08533 -0.254254H10.6238V0.256002H9.08533V-0.254254ZM10.8802 -0.254254H12.4186V0.256002H10.8802V-0.254254ZM12.675 -0.254254H14.2134V0.256002H12.675V-0.254254ZM14.4698 -0.254254H16.0083V0.256002H14.4698V-0.254254ZM16.2647 -0.254254H17.8031V0.256002H16.2647V-0.254254ZM18.0595 -0.254254H19.5979V0.256002H18.0595V-0.254254ZM19.8543 -0.254254H21.3928V0.256002H19.8543V-0.254254ZM21.6492 -0.254254H23.1876V0.256002H21.6492V-0.254254ZM23.444 -0.254254H24.9824V0.256002H23.444V-0.254254ZM25.2388 -0.254254H26.7772V0.256002H25.2388V-0.254254ZM27.0337 -0.254254H28.5721V0.256002H27.0337V-0.254254ZM28.8285 -0.254254H30.3669V0.256002H28.8285V-0.254254ZM30.6233 -0.254254H32.1617V0.256002H30.6233V-0.254254ZM32.4181 -0.254254H33.9566V0.256002H32.4181V-0.254254ZM34.213 -0.254254H35.7514V0.256002H34.213V-0.254254ZM36.0078 -0.254254H37.5462V0.256002H36.0078V-0.254254ZM37.8026 -0.254254H39.3411V0.256002H37.8026V-0.254254ZM39.5975 -0.254254H41.1359V0.256002H39.5975V-0.254254ZM41.3923 -0.254254H42.9307V0.256002H41.3923V-0.254254ZM43.1871 -0.254254H44.7256V0.256002H43.1871V-0.254254ZM44.982 -0.254254H46.5204V0.256002H44.982V-0.254254ZM46.7768 -0.254254H48.3152V0.256002H46.7768V-0.254254ZM48.5716 -0.254254H50.1101V0.256002H48.5716V-0.254254ZM50.3665 -0.254254H51.9049V0.256002H50.3665V-0.254254ZM52.1613 -0.254254H53.6997V0.256002H52.1613V-0.254254ZM53.9561 -0.254254H55.4946V0.256002H53.9561V-0.254254ZM55.751 -0.254254H57.2894V0.256002H55.751V-0.254254ZM57.5458 -0.254254H59.0842V0.256002H57.5458V-0.254254ZM59.3406 -0.254254H60.8791V0.256002H59.3406V-0.254254ZM61.1355 -0.254254H62.6739V0.256002H61.1355V-0.254254ZM62.9303 -0.254254H64.4687V0.256002H62.9303V-0.254254ZM64.7251 -0.254254H66.2636V0.256002H64.7251V-0.254254ZM66.52 -0.254254H68.0584V0.256002H66.52V-0.254254ZM68.3148 -0.254254H69.8532V0.256002H68.3148V-0.254254ZM70.1096 -0.254254H71.648V0.256002H70.1096V-0.254254ZM71.9045 -0.254254H73.4429V0.256002H71.9045V-0.254254ZM73.6993 -0.254254H75.2377V0.256002H73.6993V-0.254254ZM75.4941 -0.254254H77.0325V0.256002H75.4941V-0.254254ZM77.2889 -0.254254H78.8274V0.256002H77.2889V-0.254254ZM79.0838 -0.254254H80.6222V0.256002H79.0838V-0.254254ZM80.8786 -0.254254H82.417V0.256002H80.8786V-0.254254ZM82.6734 -0.254254H84.2119V0.256002H82.6734V-0.254254ZM84.4683 -0.254254H86.0067V0.256002H84.4683V-0.254254ZM86.2631 -0.254254H87.8015V0.256002H86.2631V-0.254254ZM88.0579 -0.254254H89.5964V0.256002H88.0579V-0.254254ZM89.8528 -0.254254H91.3912V0.256002H89.8528V-0.254254ZM91.6476 -0.254254H93.186V0.256002H91.6476V-0.254254ZM93.4424 -0.254254H94.9809V0.256002H93.4424V-0.254254ZM95.2373 -0.254254H96.7757V0.256002H95.2373V-0.254254ZM97.0321 -0.254254H98.2593V0.565697H97.7465V0.000874179H98.0029V0.256002H97.0321V-0.254254ZM98.2593 0.820824V2.35159H97.7465V0.820824H98.2593ZM98.2593 2.60672V4.13749H97.7465V2.60672H98.2593ZM98.2593 4.39261V5.92338H97.7465V4.39261H98.2593ZM98.2593 6.17851V7.70927H97.7465V6.17851H98.2593ZM98.2593 7.9644V9.49517H97.7465V7.9644H98.2593ZM98.2593 9.7503V11.2811H97.7465V9.7503H98.2593ZM98.2593 11.5362V13.067H97.7465V11.5362H98.2593ZM98.2593 13.3221V14.8528H97.7465V13.3221H98.2593ZM98.2593 15.108V16.6387H97.7465V15.108H98.2593ZM98.2593 16.8939V18.4246H97.7465V16.8939H98.2593ZM98.2593 18.6798V20.2105H97.7465V18.6798H98.2593ZM98.2593 20.4657V21.9964H97.7465V20.4657H98.2593ZM98.2593 22.2516V23.7823H97.7465V22.2516H98.2593ZM98.2593 24.0374V25.5682H97.7465V24.0374H98.2593ZM98.2593 25.8233V27.3541H97.7465V25.8233H98.2593ZM98.2593 27.6092V29.14H97.7465V27.6092H98.2593ZM98.2593 29.3951V30.9259H97.7465V29.3951H98.2593ZM98.2593 31.181V32.7118H97.7465V31.181H98.2593ZM98.2593 32.9669V34.4977H97.7465V32.9669H98.2593ZM98.2593 34.7528V36.2836H97.7465V34.7528H98.2593ZM98.2593 36.5387V37.6558H97.3307V37.1455H98.0029V37.4006H97.7465V36.5387H98.2593ZM97.0743 37.6558H95.5359V37.1455H97.0743V37.6558ZM95.2795 37.6558H93.741V37.1455H95.2795V37.6558ZM93.4846 37.6558H91.9462V37.1455H93.4846V37.6558ZM91.6898 37.6558H90.1514V37.1455H91.6898V37.6558ZM89.895 37.6558H88.3565V37.1455H89.895V37.6558ZM88.1001 37.6558H86.5617V37.1455H88.1001V37.6558ZM86.3053 37.6558H84.7669V37.1455H86.3053V37.6558ZM84.5105 37.6558H82.972V37.1455H84.5105V37.6558ZM82.7156 37.6558H81.1772V37.1455H82.7156V37.6558ZM80.9208 37.6558H79.3824V37.1455H80.9208V37.6558ZM79.126 37.6558H77.5875V37.1455H79.126V37.6558ZM77.3311 37.6558H75.7927V37.1455H77.3311V37.6558ZM75.5363 37.6558H73.9979V37.1455H75.5363V37.6558ZM73.7415 37.6558H72.203V37.1455H73.7415V37.6558ZM71.9466 37.6558H70.4082V37.1455H71.9466V37.6558ZM70.1518 37.6558H68.6134V37.1455H70.1518V37.6558ZM68.357 37.6558H66.8185V37.1455H68.357V37.6558ZM66.5621 37.6558H65.0237V37.1455H66.5621V37.6558ZM64.7673 37.6558H63.2289V37.1455H64.7673V37.6558ZM62.9725 37.6558H61.4341V37.1455H62.9725V37.6558ZM61.1776 37.6558H59.6392V37.1455H61.1776V37.6558ZM59.3828 37.6558H57.8444V37.1455H59.3828V37.6558ZM57.588 37.6558H56.0496V37.1455H57.588V37.6558ZM55.7932 37.6558H54.2547V37.1455H55.7932V37.6558ZM53.9983 37.6558H52.4599V37.1455H53.9983V37.6558ZM52.2035 37.6558H50.665V37.1455H52.2035V37.6558ZM50.4087 37.6558H48.8702V37.1455H50.4087V37.6558ZM48.6138 37.6558H47.0754V37.1455H48.6138V37.6558ZM46.819 37.6558H45.2806V37.1455H46.819V37.6558ZM45.0241 37.6558H43.4857V37.1455H45.0241V37.6558ZM43.2293 37.6558H41.6909V37.1455H43.2293V37.6558ZM41.4345 37.6558H39.8961V37.1455H41.4345V37.6558ZM39.6397 37.6558H38.1012V37.1455H39.6397V37.6558ZM37.8448 37.6558H36.3064V37.1455H37.8448V37.6558ZM36.05 37.6558H34.5116V37.1455H36.05V37.6558ZM34.2552 37.6558H32.7167V37.1455H34.2552V37.6558ZM32.4603 37.6558H30.9219V37.1455H32.4603V37.6558ZM30.6655 37.6558H29.1271V37.1455H30.6655V37.6558ZM28.8707 37.6558H27.3322V37.1455H28.8707V37.6558ZM27.0758 37.6558H25.5374V37.1455H27.0758V37.6558ZM25.281 37.6558H23.7426V37.1455H25.281V37.6558ZM23.4862 37.6558H21.9477V37.1455H23.4862V37.6558ZM21.6913 37.6558H20.1529V37.1455H21.6913V37.6558ZM19.8965 37.6558H18.3581V37.1455H19.8965V37.6558ZM18.1017 37.6558H16.5633V37.1455H18.1017V37.6558ZM16.3068 37.6558H14.7684V37.1455H16.3068V37.6558ZM14.512 37.6558H12.9736V37.1455H14.512V37.6558ZM12.7172 37.6558H11.1787V37.1455H12.7172V37.6558ZM10.9224 37.6558H9.38393V37.1455H10.9224V37.6558ZM9.12751 37.6558H7.58908V37.1455H9.12751V37.6558ZM7.33269 37.6558H5.79426V37.1455H7.33269V37.6558ZM5.53785 37.6558H3.99942V37.1455H5.53785V37.6558ZM3.74303 37.6558H2.2046V37.1455H3.74303V37.6558ZM1.94818 37.6558H0.409755V37.1455H1.94818V37.6558ZM0.153363 37.6558H-0.249779V35.8699H0.26303V37.4006H0.00662561V37.1455H0.153363V37.6558Z" fill="var(--fill-0, #C2FDFF)"/>
</g>
</g>
</svg>
