<svg preserveAspectRatio="none" width="100%" height="100%" overflow="visible" style="display: block;" viewBox="0 0 89.6845 6.75117" fill="none" xmlns="http://www.w3.org/2000/svg">
<g id="border">
<path id="Vector" d="M0.170087 0.170093H89.5233V6.58108H0.170087V0.170093Z" fill="var(--fill-0, white)"/>
<path id="Vector_2" d="M1.36068 0H2.38119V0.34017H1.36068V0ZM2.55128 0H3.57179V0.34017H2.55128V0ZM3.74187 0H4.76239V0.34017H3.74187V0ZM4.93247 0H5.95298V0.34017H4.93247V0ZM6.12307 0H7.14358V0.34017H6.12307V0ZM7.31366 0H8.33417V0.34017H7.31366V0ZM8.50426 0H9.52477V0.34017H8.50426V0ZM9.69486 0H10.7154V0.34017H9.69486V0ZM10.8855 0H11.906V0.34017H10.8855V0ZM12.076 0H13.0966V0.34017H12.076V0ZM13.2666 0H14.2872V0.34017H13.2666V0ZM14.4572 0H15.4778V0.34017H14.4572V0ZM15.6478 0H16.6683V0.34017H15.6478V0ZM16.8384 0H17.8589V0.34017H16.8384V0ZM18.029 0H19.0495V0.34017H18.029V0ZM19.2196 0H20.2401V0.34017H19.2196V0ZM20.4102 0H21.4307V0.34017H20.4102V0ZM21.6008 0H22.6213V0.34017H21.6008V0ZM22.7914 0H23.8119V0.34017H22.7914V0ZM23.982 0H25.0025V0.34017H23.982V0ZM25.1726 0H26.1931V0.34017H25.1726V0ZM26.3632 0H27.3837V0.34017H26.3632V0ZM27.5538 0H28.5743V0.34017H27.5538V0ZM28.7444 0H29.7649V0.34017H28.7444V0ZM29.935 0H30.9555V0.34017H29.935V0ZM31.1256 0H32.1461V0.34017H31.1256V0ZM32.3162 0H33.3367V0.34017H32.3162V0ZM33.5068 0H34.5273V0.34017H33.5068V0ZM34.6974 0H35.7179V0.34017H34.6974V0ZM35.888 0H36.9085V0.34017H35.888V0ZM37.0786 0H38.0991V0.34017H37.0786V0ZM38.2692 0H39.2897V0.34017H38.2692V0ZM39.4598 0H40.4803V0.34017H39.4598V0ZM40.6504 0H41.6709V0.34017H40.6504V0ZM41.841 0H42.8615V0.34017H41.841V0ZM43.0316 0H44.0521V0.34017H43.0316V0ZM44.2221 0H45.2427V0.34017H44.2221V0ZM45.4127 0H46.4333V0.34017H45.4127V0ZM46.6033 0H47.6239V0.34017H46.6033V0ZM47.7939 0H48.8144V0.34017H47.7939V0ZM48.9845 0H50.005V0.34017H48.9845V0ZM50.1751 0H51.1956V0.34017H50.1751V0ZM51.3657 0H52.3862V0.34017H51.3657V0ZM52.5563 0H53.5768V0.34017H52.5563V0ZM53.7469 0H54.7674V0.34017H53.7469V0ZM54.9375 0H55.958V0.34017H54.9375V0ZM56.1281 0H57.1486V0.34017H56.1281V0ZM57.3187 0H58.3392V0.34017H57.3187V0ZM58.5093 0H59.5298V0.34017H58.5093V0ZM59.6999 0H60.7204V0.34017H59.6999V0ZM60.8905 0H61.911V0.34017H60.8905V0ZM62.0811 0H63.1016V0.34017H62.0811V0ZM63.2717 0H64.2922V0.34017H63.2717V0ZM64.4623 0H65.4828V0.34017H64.4623V0ZM65.6529 0H66.6734V0.34017H65.6529V0ZM66.8435 0H67.864V0.34017H66.8435V0ZM68.0341 0H69.0546V0.34017H68.0341V0ZM69.2247 0H70.2452V0.34017H69.2247V0ZM70.4153 0H71.4358V0.34017H70.4153V0ZM71.6059 0H72.6264V0.34017H71.6059V0ZM72.7965 0H73.817V0.34017H72.7965V0ZM73.9871 0H75.0076V0.34017H73.9871V0ZM75.1777 0H76.1982V0.34017H75.1777V0ZM76.3682 0H77.3888V0.34017H76.3682V0ZM77.5588 0H78.5794V0.34017H77.5588V0ZM78.7494 0H79.77V0.34017H78.7494V0ZM79.94 0H80.9605V0.34017H79.94V0ZM81.1306 0H82.1511V0.34017H81.1306V0ZM82.3212 0H83.3417V0.34017H82.3212V0ZM83.5118 0H84.5323V0.34017H83.5118V0ZM84.7024 0H85.7229V0.34017H84.7024V0ZM85.893 0H86.9135V0.34017H85.893V0ZM87.0836 0H88.1041V0.34017H87.0836V0ZM88.2742 0H89.2947V0.34017H88.2742V0ZM89.4648 0H89.6846V1.14094H89.3444V0.170085H89.5145V0.34017H89.4648V0ZM89.6846 1.31102V2.33153H89.3444V1.31102H89.6846ZM89.6846 2.50162V3.52213H89.3444V2.50162H89.6846ZM89.6846 3.69221V4.71273H89.3444V3.69221H89.6846ZM89.6846 4.88281V5.90332H89.3444V4.88281H89.6846ZM89.6846 6.07341V6.75115H89.0016V6.41098H89.5145V6.58107H89.3444V6.07341H89.6846ZM88.8315 6.75115H87.811V6.41098H88.8315V6.75115ZM87.6409 6.75115H86.6204V6.41098H87.6409V6.75115ZM86.4503 6.75115H85.4298V6.41098H86.4503V6.75115ZM85.2597 6.75115H84.2392V6.41098H85.2597V6.75115ZM84.0691 6.75115H83.0486V6.41098H84.0691V6.75115ZM82.8785 6.75115H81.858V6.41098H82.8785V6.75115ZM81.6879 6.75115H80.6674V6.41098H81.6879V6.75115ZM80.4973 6.75115H79.4768V6.41098H80.4973V6.75115ZM79.3068 6.75115H78.2862V6.41098H79.3068V6.75115ZM78.1162 6.75115H77.0956V6.41098H78.1162V6.75115ZM76.9256 6.75115H75.905V6.41098H76.9256V6.75115ZM75.735 6.75115H74.7145V6.41098H75.735V6.75115ZM74.5444 6.75115H73.5239V6.41098H74.5444V6.75115ZM73.3538 6.75115H72.3333V6.41098H73.3538V6.75115ZM72.1632 6.75115H71.1427V6.41098H72.1632V6.75115ZM70.9726 6.75115H69.9521V6.41098H70.9726V6.75115ZM69.782 6.75115H68.7615V6.41098H69.782V6.75115ZM68.5914 6.75115H67.5709V6.41098H68.5914V6.75115ZM67.4008 6.75115H66.3803V6.41098H67.4008V6.75115ZM66.2102 6.75115H65.1897V6.41098H66.2102V6.75115ZM65.0196 6.75115H63.9991V6.41098H65.0196V6.75115ZM63.829 6.75115H62.8085V6.41098H63.829V6.75115ZM62.6384 6.75115H61.6179V6.41098H62.6384V6.75115ZM61.4478 6.75115H60.4273V6.41098H61.4478V6.75115ZM60.2572 6.75115H59.2367V6.41098H60.2572V6.75115ZM59.0666 6.75115H58.0461V6.41098H59.0666V6.75115ZM57.876 6.75115H56.8555V6.41098H57.876V6.75115ZM56.6854 6.75115H55.6649V6.41098H56.6854V6.75115ZM55.4948 6.75115H54.4743V6.41098H55.4948V6.75115ZM54.3042 6.75115H53.2837V6.41098H54.3042V6.75115ZM53.1136 6.75115H52.0931V6.41098H53.1136V6.75115ZM51.923 6.75115H50.9025V6.41098H51.923V6.75115ZM50.7324 6.75115H49.7119V6.41098H50.7324V6.75115ZM49.5419 6.75115H48.5213V6.41098H49.5419V6.75115ZM48.3513 6.75115H47.3307V6.41098H48.3513V6.75115ZM47.1607 6.75115H46.1401V6.41098H47.1607V6.75115ZM45.9701 6.75115H44.9496V6.41098H45.9701V6.75115ZM44.7795 6.75115H43.759V6.41098H44.7795V6.75115ZM43.5889 6.75115H42.5684V6.41098H43.5889V6.75115ZM42.3983 6.75115H41.3778V6.41098H42.3983V6.75115ZM41.2077 6.75115H40.1872V6.41098H41.2077V6.75115ZM40.0171 6.75115H38.9966V6.41098H40.0171V6.75115ZM38.8265 6.75115H37.806V6.41098H38.8265V6.75115ZM37.6359 6.75115H36.6154V6.41098H37.6359V6.75115ZM36.4453 6.75115H35.4248V6.41098H36.4453V6.75115ZM35.2547 6.75115H34.2342V6.41098H35.2547V6.75115ZM34.0641 6.75115H33.0436V6.41098H34.0641V6.75115ZM32.8735 6.75115H31.853V6.41098H32.8735V6.75115ZM31.6829 6.75115H30.6624V6.41098H31.6829V6.75115ZM30.4923 6.75115H29.4718V6.41098H30.4923V6.75115ZM29.3017 6.75115H28.2812V6.41098H29.3017V6.75115ZM28.1111 6.75115H27.0906V6.41098H28.1111V6.75115ZM26.9205 6.75115H25.9V6.41098H26.9205V6.75115ZM25.7299 6.75115H24.7094V6.41098H25.7299V6.75115ZM24.5393 6.75115H23.5188V6.41098H24.5393V6.75115ZM23.3487 6.75115H22.3282V6.41098H23.3487V6.75115ZM22.1581 6.75115H21.1376V6.41098H22.1581V6.75115ZM20.9675 6.75115H19.947V6.41098H20.9675V6.75115ZM19.7769 6.75115H18.7564V6.41098H19.7769V6.75115ZM18.5864 6.75115H17.5658V6.41098H18.5864V6.75115ZM17.3958 6.75115H16.3752V6.41098H17.3958V6.75115ZM16.2052 6.75115H15.1846V6.41098H16.2052V6.75115ZM15.0146 6.75115H13.994V6.41098H15.0146V6.75115ZM13.824 6.75115H12.8035V6.41098H13.824V6.75115ZM12.6334 6.75115H11.6129V6.41098H12.6334V6.75115ZM11.4428 6.75115H10.4223V6.41098H11.4428V6.75115ZM10.2522 6.75115H9.23167V6.41098H10.2522V6.75115ZM9.06158 6.75115H8.04107V6.41098H9.06158V6.75115ZM7.87099 6.75115H6.85048V6.41098H7.87099V6.75115ZM6.68039 6.75115H5.65988V6.41098H6.68039V6.75115ZM5.48979 6.75115H4.46928V6.41098H5.48979V6.75115ZM4.2992 6.75115H3.27869V6.41098H4.2992V6.75115ZM3.1086 6.75115H2.08809V6.41098H3.1086V6.75115ZM1.91801 6.75115H0.897495V6.41098H1.91801V6.75115ZM0.72741 6.75115H0V6.11788H0.34017V6.58107H0.170085V6.41098H0.72741V6.75115ZM0 5.94779V4.92728H0.34017V5.94779H0ZM0 4.7572V3.73669H0.34017V4.7572H0ZM0 3.5666V2.54609H0.34017V3.5666H0ZM0 2.37601V1.3555H0.34017V2.37601H0ZM0 1.18541V0H1.1906V0.34017H0.170085V0.170085H0.34017V1.18541H0Z" fill="var(--fill-0, #22ACF5)"/>
</g>
</svg>
