<svg preserveAspectRatio="none" width="100%" height="100%" overflow="visible" style="display: block;" viewBox="0 0 31.584 11.496" fill="none" xmlns="http://www.w3.org/2000/svg">
<g id="Clip path group">
<mask id="mask0_167_36" style="mask-type:luminance" maskUnits="userSpaceOnUse" x="0" y="0" width="32" height="12">
<path id="Vector" fill-rule="evenodd" clip-rule="evenodd" d="M2.44975e-05 0H31.584V11.496H2.44975e-05V0Z" fill="var(--fill-0, white)"/>
</mask>
<g mask="url(#mask0_167_36)">
<g id="Group">
<path id="Vector_2" d="M0.00829609 -0.00037685H31.5959V11.4991H0.00829609V-0.00037685Z" fill="var(--fill-0, white)"/>
<path id="Vector_3" d="M0.722913 -0.102413H1.33522V0.101689H0.722913V-0.102413ZM1.43727 -0.102413H2.04958V0.101689H1.43727V-0.102413ZM2.15163 -0.102413H2.76394V0.101689H2.15163V-0.102413ZM2.86599 -0.102413H3.47829V0.101689H2.86599V-0.102413ZM3.58034 -0.102413H4.19265V0.101689H3.58034V-0.102413ZM4.2947 -0.102413H4.90701V0.101689H4.2947V-0.102413ZM5.00906 -0.102413H5.62137V0.101689H5.00906V-0.102413ZM5.72342 -0.102413H6.33572V0.101689H5.72342V-0.102413ZM6.43778 -0.102413H7.05008V0.101689H6.43778V-0.102413ZM7.15213 -0.102413H7.76444V0.101689H7.15213V-0.102413ZM7.86649 -0.102413H8.4788V0.101689H7.86649V-0.102413ZM8.58085 -0.102413H9.19315V0.101689H8.58085V-0.102413ZM9.29521 -0.102413H9.90751V0.101689H9.29521V-0.102413ZM10.0096 -0.102413H10.6219V0.101689H10.0096V-0.102413ZM10.7239 -0.102413H11.3362V0.101689H10.7239V-0.102413ZM11.4383 -0.102413H12.0506V0.101689H11.4383V-0.102413ZM12.1526 -0.102413H12.7649V0.101689H12.1526V-0.102413ZM12.867 -0.102413H13.4793V0.101689H12.867V-0.102413ZM13.5814 -0.102413H14.1937V0.101689H13.5814V-0.102413ZM14.2957 -0.102413H14.908V0.101689H14.2957V-0.102413ZM15.0101 -0.102413H15.6224V0.101689H15.0101V-0.102413ZM15.7244 -0.102413H16.3367V0.101689H15.7244V-0.102413ZM16.4388 -0.102413H17.0511V0.101689H16.4388V-0.102413ZM17.1531 -0.102413H17.7654V0.101689H17.1531V-0.102413ZM17.8675 -0.102413H18.4798V0.101689H17.8675V-0.102413ZM18.5819 -0.102413H19.1942V0.101689H18.5819V-0.102413ZM19.2962 -0.102413H19.9085V0.101689H19.2962V-0.102413ZM20.0106 -0.102413H20.6229V0.101689H20.0106V-0.102413ZM20.7249 -0.102413H21.3372V0.101689H20.7249V-0.102413ZM21.4393 -0.102413H22.0516V0.101689H21.4393V-0.102413ZM22.1536 -0.102413H22.766V0.101689H22.1536V-0.102413ZM22.868 -0.102413H23.4803V0.101689H22.868V-0.102413ZM23.5824 -0.102413H24.1947V0.101689H23.5824V-0.102413ZM24.2967 -0.102413H24.909V0.101689H24.2967V-0.102413ZM25.0111 -0.102413H25.6234V0.101689H25.0111V-0.102413ZM25.7254 -0.102413H26.3377V0.101689H25.7254V-0.102413ZM26.4398 -0.102413H27.0521V0.101689H26.4398V-0.102413ZM27.1542 -0.102413H27.7665V0.101689H27.1542V-0.102413ZM27.8685 -0.102413H28.4808V0.101689H27.8685V-0.102413ZM28.5829 -0.102413H29.1952V0.101689H28.5829V-0.102413ZM29.2972 -0.102413H29.9095V0.101689H29.2972V-0.102413ZM30.0116 -0.102413H30.6239V0.101689H30.0116V-0.102413ZM30.7259 -0.102413H31.3382V0.101689H30.7259V-0.102413ZM31.4403 -0.102413H31.6976V0.456648H31.4935V-0.000361827H31.5956V0.101689H31.4403V-0.102413ZM31.6976 0.558697V1.171H31.4935V0.558697H31.6976ZM31.6976 1.27306V1.88536H31.4935V1.27306H31.6976ZM31.6976 1.98741V2.59972H31.4935V1.98741H31.6976ZM31.6976 2.70177V3.31408H31.4935V2.70177H31.6976ZM31.6976 3.41613V4.02844H31.4935V3.41613H31.6976ZM31.6976 4.13049V4.74279H31.4935V4.13049H31.6976ZM31.6976 4.84485V5.45715H31.4935V4.84485H31.6976ZM31.6976 5.5592V6.17151H31.4935V5.5592H31.6976ZM31.6976 6.27356V6.88587H31.4935V6.27356H31.6976ZM31.6976 6.98792V7.60022H31.4935V6.98792H31.6976ZM31.6976 7.70228V8.31458H31.4935V7.70228H31.6976ZM31.6976 8.41663V9.02894H31.4935V8.41663H31.6976ZM31.6976 9.13099V9.7433H31.4935V9.13099H31.6976ZM31.6976 9.84535V10.4577H31.4935V9.84535H31.6976ZM31.6976 10.5597V11.172H31.4935V10.5597H31.6976ZM31.6976 11.2741V11.6017H31.2088V11.3976H31.5956V11.4996H31.4935V11.2741H31.6976ZM31.1068 11.6017H30.4945V11.3976H31.1068V11.6017ZM30.3924 11.6017H29.7801V11.3976H30.3924V11.6017ZM29.6781 11.6017H29.0658V11.3976H29.6781V11.6017ZM28.9637 11.6017H28.3514V11.3976H28.9637V11.6017ZM28.2494 11.6017H27.6371V11.3976H28.2494V11.6017ZM27.535 11.6017H26.9227V11.3976H27.535V11.6017ZM26.8206 11.6017H26.2083V11.3976H26.8206V11.6017ZM26.1063 11.6017H25.494V11.3976H26.1063V11.6017ZM25.3919 11.6017H24.7796V11.3976H25.3919V11.6017ZM24.6776 11.6017H24.0653V11.3976H24.6776V11.6017ZM23.9632 11.6017H23.3509V11.3976H23.9632V11.6017ZM23.2489 11.6017H22.6365V11.3976H23.2489V11.6017ZM22.5345 11.6017H21.9222V11.3976H22.5345V11.6017ZM21.8201 11.6017H21.2078V11.3976H21.8201V11.6017ZM21.1058 11.6017H20.4935V11.3976H21.1058V11.6017ZM20.3914 11.6017H19.7791V11.3976H20.3914V11.6017ZM19.6771 11.6017H19.0648V11.3976H19.6771V11.6017ZM18.9627 11.6017H18.3504V11.3976H18.9627V11.6017ZM18.2483 11.6017H17.636V11.3976H18.2483V11.6017ZM17.534 11.6017H16.9217V11.3976H17.534V11.6017ZM16.8196 11.6017H16.2073V11.3976H16.8196V11.6017ZM16.1053 11.6017H15.493V11.3976H16.1053V11.6017ZM15.3909 11.6017H14.7786V11.3976H15.3909V11.6017ZM14.6766 11.6017H14.0643V11.3976H14.6766V11.6017ZM13.9622 11.6017H13.3499V11.3976H13.9622V11.6017ZM13.2478 11.6017H12.6355V11.3976H13.2478V11.6017ZM12.5335 11.6017H11.9212V11.3976H12.5335V11.6017ZM11.8191 11.6017H11.2068V11.3976H11.8191V11.6017ZM11.1048 11.6017H10.4925V11.3976H11.1048V11.6017ZM10.3904 11.6017H9.77811V11.3976H10.3904V11.6017ZM9.67605 11.6017H9.06375V11.3976H9.67605V11.6017ZM8.96169 11.6017H8.34939V11.3976H8.96169V11.6017ZM8.24734 11.6017H7.63503V11.3976H8.24734V11.6017ZM7.53298 11.6017H6.92067V11.3976H7.53298V11.6017ZM6.81863 11.6017H6.20632V11.3976H6.81863V11.6017ZM6.10427 11.6017H5.49196V11.3976H6.10427V11.6017ZM5.38991 11.6017H4.7776V11.3976H5.38991V11.6017ZM4.67555 11.6017H4.06324V11.3976H4.67555V11.6017ZM3.96119 11.6017H3.34888V11.3976H3.96119V11.6017ZM3.24684 11.6017H2.63453V11.3976H3.24684V11.6017ZM2.53248 11.6017H1.92017V11.3976H2.53248V11.6017ZM1.81812 11.6017H1.20582V11.3976H1.81812V11.6017ZM1.10376 11.6017H0.491456V11.3976H1.10376V11.6017ZM0.389404 11.6017H-0.0934959V11.2682H0.110606V11.4996H0.00855521V11.3976H0.389404V11.6017ZM-0.0934959 11.1661V10.5538H0.110606V11.1661H-0.0934959ZM-0.0934959 10.4518V9.83944H0.110606V10.4518H-0.0934959ZM-0.0934959 9.73739V9.12508H0.110606V9.73739H-0.0934959ZM-0.0934959 9.02304V8.41073H0.110606V9.02304H-0.0934959ZM-0.0934959 8.30868V7.69637H0.110606V8.30868H-0.0934959ZM-0.0934959 7.59432V6.98202H0.110606V7.59432H-0.0934959ZM-0.0934959 6.87996V6.26766H0.110606V6.87996H-0.0934959ZM-0.0934959 6.1656V5.5533H0.110606V6.1656H-0.0934959ZM-0.0934959 5.45125V4.83894H0.110606V5.45125H-0.0934959ZM-0.0934959 4.73689V4.12458H0.110606V4.73689H-0.0934959ZM-0.0934959 4.02253V3.41023H0.110606V4.02253H-0.0934959ZM-0.0934959 3.30817V2.69587H0.110606V3.30817H-0.0934959ZM-0.0934959 2.59381V1.98151H0.110606V2.59381H-0.0934959ZM-0.0934959 1.87946V1.26715H0.110606V1.87946H-0.0934959ZM-0.0934959 1.1651V0.552792H0.110606V1.1651H-0.0934959ZM-0.0934959 0.45074V-0.102413H0.620862V0.101689H0.00855521V-0.000361827H0.110606V0.45074H-0.0934959Z" fill="var(--fill-0, #C86AD4)"/>
</g>
</g>
</g>
</svg>
