<svg preserveAspectRatio="none" width="100%" height="100%" overflow="visible" style="display: block;" viewBox="0 0 9.20784 9.83001" fill="none" xmlns="http://www.w3.org/2000/svg">
<g id="Group">
<path id="Vector" d="M0.107456 0.102051H9.09504V9.72815H0.107456V0.102051Z" fill="var(--fill-0, white)"/>
<path id="Vector_2" d="M0.860975 5.1558e-06H1.50668V0.204107H0.860975V5.1558e-06ZM1.6143 5.1558e-06H2.26V0.204107H1.6143V5.1558e-06ZM2.36762 5.1558e-06H3.01333V0.204107H2.36762V5.1558e-06ZM3.12094 5.1558e-06H3.76665V0.204107H3.12094V5.1558e-06ZM3.87427 5.1558e-06H4.51997V0.204107H3.87427V5.1558e-06ZM4.62759 5.1558e-06H5.27329V0.204107H4.62759V5.1558e-06ZM5.38091 5.1558e-06H6.02662V0.204107H5.38091V5.1558e-06ZM6.13423 5.1558e-06H6.77994V0.204107H6.13423V5.1558e-06ZM6.88756 5.1558e-06H7.53326V0.204107H6.88756V5.1558e-06ZM7.64088 5.1558e-06H8.28658V0.204107H7.64088V5.1558e-06ZM8.3942 5.1558e-06H9.03991V0.204107H8.3942V5.1558e-06ZM9.20784 0.146908V0.759215H8.99261V0.146908H9.20784ZM9.20784 0.861266V1.47357H8.99261V0.861266H9.20784ZM9.20784 1.57562V2.18793H8.99261V1.57562H9.20784ZM9.20784 2.28998V2.90229H8.99261V2.28998H9.20784ZM9.20784 3.00434V3.61665H8.99261V3.00434H9.20784ZM9.20784 3.7187V4.331H8.99261V3.7187H9.20784ZM9.20784 4.43305V5.04536H8.99261V4.43305H9.20784ZM9.20784 5.14741V5.75972H8.99261V5.14741H9.20784ZM9.20784 5.86177V6.47408H8.99261V5.86177H9.20784ZM9.20784 6.57613V7.18843H8.99261V6.57613H9.20784ZM9.20784 7.29049V7.90279H8.99261V7.29049H9.20784ZM9.20784 8.00484V8.61715H8.99261V8.00484H9.20784ZM9.20784 8.7192V9.33151H8.99261V8.7192H9.20784ZM9.20784 9.43356V9.83001H8.76497V9.6259H9.10023V9.72795H8.99261V9.43356H9.20784ZM8.65736 9.83001H8.01165V9.6259H8.65736V9.83001ZM7.90403 9.83001H7.25833V9.6259H7.90403V9.83001ZM7.15071 9.83001H6.50501V9.6259H7.15071V9.83001ZM6.39739 9.83001H5.75168V9.6259H6.39739V9.83001ZM5.64407 9.83001H4.99836V9.6259H5.64407V9.83001ZM4.89074 9.83001H4.24504V9.6259H4.89074V9.83001ZM4.13742 9.83001H3.49172V9.6259H4.13742V9.83001ZM3.3841 9.83001H2.73839V9.6259H3.3841V9.83001ZM2.63077 9.83001H1.98507V9.6259H2.63077V9.83001ZM1.87745 9.83001H1.23175V9.6259H1.87745V9.83001ZM1.12413 9.83001H0.478424V9.6259H1.12413V9.83001ZM0.370807 9.83001H3.48166e-05V9.36519H0.21527V9.72795H0.107652V9.6259H0.370807V9.83001ZM3.48166e-05 9.26314V8.65083H0.21527V9.26314H3.48166e-05ZM3.48166e-05 8.54878V7.93647H0.21527V8.54878H3.48166e-05ZM3.48166e-05 7.83442V7.22212H0.21527V7.83442H3.48166e-05ZM3.48166e-05 7.12007V6.50776H0.21527V7.12007H3.48166e-05ZM3.48166e-05 6.40571V5.7934H0.21527V6.40571H3.48166e-05ZM3.48166e-05 5.69135V5.07905H0.21527V5.69135H3.48166e-05ZM3.48166e-05 4.97699V4.36469H0.21527V4.97699H3.48166e-05ZM3.48166e-05 4.26264V3.65033H0.21527V4.26264H3.48166e-05ZM3.48166e-05 3.54828V2.93597H0.21527V3.54828H3.48166e-05ZM3.48166e-05 2.83392V2.22161H0.21527V2.83392H3.48166e-05ZM3.48166e-05 2.11956V1.50725H0.21527V2.11956H3.48166e-05ZM3.48166e-05 1.40521V0.792898H0.21527V1.40521H3.48166e-05ZM3.48166e-05 0.690848V5.1558e-06H0.753358V0.204107H0.107652V0.102056H0.21527V0.690848H3.48166e-05Z" fill="var(--fill-0, #6E5A00)"/>
</g>
</svg>
