<svg preserveAspectRatio="none" width="100%" height="100%" overflow="visible" style="display: block;" viewBox="0 0 47.064 39.384" fill="none" xmlns="http://www.w3.org/2000/svg">
<g id="Clip path group">
<mask id="mask0_167_132" style="mask-type:luminance" maskUnits="userSpaceOnUse" x="0" y="0" width="48" height="40">
<path id="Vector" fill-rule="evenodd" clip-rule="evenodd" d="M2.11e-05 0H47.064V39.384H2.11e-05V0Z" fill="var(--fill-0, white)"/>
</mask>
<g mask="url(#mask0_167_132)">
<path id="Vector_2" d="M-0.260847 37.5922V36.0615H0.249409V37.5922H-0.260847ZM-0.260847 35.8063V34.2756H0.249409V35.8063H-0.260847ZM-0.260847 34.0205V32.4897H0.249409V34.0205H-0.260847ZM-0.260847 32.2346V30.7038H0.249409V32.2346H-0.260847ZM-0.260847 30.4487V28.9179H0.249409V30.4487H-0.260847ZM-0.260847 28.6628V27.132H0.249409V28.6628H-0.260847ZM-0.260847 26.8769V25.3461H0.249409V26.8769H-0.260847ZM-0.260847 25.091V23.5602H0.249409V25.091H-0.260847ZM-0.260847 23.3051V21.7743H0.249409V23.3051H-0.260847ZM-0.260847 21.5192V19.9884H0.249409V21.5192H-0.260847ZM-0.260847 19.7333V18.2025H0.249409V19.7333H-0.260847ZM-0.260847 17.9474V16.4166H0.249409V17.9474H-0.260847ZM-0.260847 16.1615V14.6307H0.249409V16.1615H-0.260847ZM-0.260847 14.3756V12.8448H0.249409V14.3756H-0.260847ZM-0.260847 12.5897V11.059H0.249409V12.5897H-0.260847ZM-0.260847 10.8038V9.27306H0.249409V10.8038H-0.260847ZM-0.260847 9.01793V7.48716H0.249409V9.01793H-0.260847ZM-0.260847 7.23204V5.70127H0.249409V7.23204H-0.260847ZM-0.260847 5.44614V3.91538H0.249409V5.44614H-0.260847ZM-0.260847 3.66025V2.12948H0.249409V3.66025H-0.260847ZM-0.260847 1.87435V0.343587H0.249409V1.87435H-0.260847ZM-0.260847 0.0884588V-0.259372H1.43234V0.250883H-0.00571878V-0.00424427H0.249409V0.0884588H-0.260847ZM1.68747 -0.259372H3.21824V0.250883H1.68747V-0.259372ZM3.47337 -0.259372H5.00413V0.250883H3.47337V-0.259372ZM5.25926 -0.259372H6.79003V0.250883H5.25926V-0.259372ZM7.04515 -0.259372H8.57592V0.250883H7.04515V-0.259372ZM8.83105 -0.259372H10.3618V0.250883H8.83105V-0.259372ZM10.6169 -0.259372H12.1477V0.250883H10.6169V-0.259372ZM12.4028 -0.259372H13.9336V0.250883H12.4028V-0.259372ZM14.1887 -0.259372H15.7195V0.250883H14.1887V-0.259372ZM15.9746 -0.259372H17.5054V0.250883H15.9746V-0.259372ZM17.7605 -0.259372H19.2913V0.250883H17.7605V-0.259372ZM19.5464 -0.259372H21.0772V0.250883H19.5464V-0.259372ZM21.3323 -0.259372H22.8631V0.250883H21.3323V-0.259372ZM23.1182 -0.259372H24.649V0.250883H23.1182V-0.259372ZM24.9041 -0.259372H26.4349V0.250883H24.9041V-0.259372ZM26.69 -0.259372H28.2208V0.250883H26.69V-0.259372ZM28.4759 -0.259372H30.0067V0.250883H28.4759V-0.259372ZM30.2618 -0.259372H31.7925V0.250883H30.2618V-0.259372ZM32.0477 -0.259372H33.5784V0.250883H32.0477V-0.259372ZM33.8336 -0.259372H35.3643V0.250883H33.8336V-0.259372ZM35.6195 -0.259372H37.1502V0.250883H35.6195V-0.259372ZM37.4054 -0.259372H38.9361V0.250883H37.4054V-0.259372ZM39.1913 -0.259372H40.722V0.250883H39.1913V-0.259372ZM40.9771 -0.259372H42.5079V0.250883H40.9771V-0.259372ZM42.763 -0.259372H44.2938V0.250883H42.763V-0.259372ZM44.5489 -0.259372H46.0797V0.250883H44.5489V-0.259372ZM46.3348 -0.259372H47.3187V0.797775H46.8084V-0.00424427H47.0636V0.250883H46.3348V-0.259372ZM47.3187 1.0529V2.58367H46.8084V1.0529H47.3187ZM47.3187 2.8388V4.36956H46.8084V2.8388H47.3187ZM47.3187 4.62469V6.15546H46.8084V4.62469H47.3187ZM47.3187 6.41059V7.94135H46.8084V6.41059H47.3187ZM47.3187 8.19648V9.72725H46.8084V8.19648H47.3187ZM47.3187 9.98237V11.5131H46.8084V9.98237H47.3187ZM47.3187 11.7683V13.299H46.8084V11.7683H47.3187ZM47.3187 13.5542V15.0849H46.8084V13.5542H47.3187ZM47.3187 15.3401V16.8708H46.8084V15.3401H47.3187ZM47.3187 17.126V18.6567H46.8084V17.126H47.3187ZM47.3187 18.9118V20.4426H46.8084V18.9118H47.3187ZM47.3187 20.6977V22.2285H46.8084V20.6977H47.3187ZM47.3187 22.4836V24.0144H46.8084V22.4836H47.3187ZM47.3187 24.2695V25.8003H46.8084V24.2695H47.3187ZM47.3187 26.0554V27.5862H46.8084V26.0554H47.3187ZM47.3187 27.8413V29.3721H46.8084V27.8413H47.3187ZM47.3187 29.6272V31.158H46.8084V29.6272H47.3187ZM47.3187 31.4131V32.9439H46.8084V31.4131H47.3187ZM47.3187 33.199V34.7298H46.8084V33.199H47.3187ZM47.3187 34.9849V36.5157H46.8084V34.9849H47.3187ZM47.3187 36.7708V38.3016H46.8084V36.7708H47.3187ZM47.3187 38.5567V39.6333H46.3543V39.123H47.0636V39.3781H46.8084V38.5567H47.3187ZM46.0991 39.6333H44.5684V39.123H46.0991V39.6333ZM44.3132 39.6333H42.7825V39.123H44.3132V39.6333ZM42.5273 39.6333H40.9966V39.123H42.5273V39.6333ZM40.7414 39.6333H39.2107V39.123H40.7414V39.6333ZM38.9556 39.6333H37.4248V39.123H38.9556V39.6333ZM37.1697 39.6333H35.6389V39.123H37.1697V39.6333ZM35.3838 39.6333H33.853V39.123H35.3838V39.6333ZM33.5979 39.6333H32.0671V39.123H33.5979V39.6333ZM31.812 39.6333H30.2812V39.123H31.812V39.6333ZM30.0261 39.6333H28.4953V39.123H30.0261V39.6333ZM28.2402 39.6333H26.7094V39.123H28.2402V39.6333ZM26.4543 39.6333H24.9235V39.123H26.4543V39.6333ZM24.6684 39.6333H23.1376V39.123H24.6684V39.6333ZM22.8825 39.6333H21.3517V39.123H22.8825V39.6333ZM21.0966 39.6333H19.5658V39.123H21.0966V39.6333ZM19.3107 39.6333H17.78V39.123H19.3107V39.6333ZM17.5248 39.6333H15.9941V39.123H17.5248V39.6333ZM15.7389 39.6333H14.2082V39.123H15.7389V39.6333ZM13.953 39.6333H12.4223V39.123H13.953V39.6333ZM12.1671 39.6333H10.6364V39.123H12.1671V39.6333ZM10.3812 39.6333H8.85048V39.123H10.3812V39.6333ZM8.59535 39.6333H7.06459V39.123H8.59535V39.6333ZM6.80946 39.6333H5.27869V39.123H6.80946V39.6333ZM5.02357 39.6333H3.4928V39.123H5.02357V39.6333ZM3.23767 39.6333H1.7069V39.123H3.23767V39.6333ZM1.45178 39.6333H-0.260847V37.8474H0.249409V39.3781H-0.00571878V39.123H1.45178V39.6333Z" fill="var(--fill-0, #C2FDFF)"/>
</g>
</g>
</svg>
