<svg preserveAspectRatio="none" width="100%" height="100%" overflow="visible" style="display: block;" viewBox="0 0 16.0857 9.83009" fill="none" xmlns="http://www.w3.org/2000/svg">
<g id="Group">
<path id="Vector" d="M0.10752 0.102051H15.9762V9.72815H0.10752V0.102051Z" fill="var(--fill-0, white)"/>
<path id="Vector_2" d="M0.860984 6.98864e-06H1.50669V0.204109H0.860984V6.98864e-06ZM1.61431 6.98864e-06H2.26001V0.204109H1.61431V6.98864e-06ZM2.36763 6.98864e-06H3.01333V0.204109H2.36763V6.98864e-06ZM3.12095 6.98864e-06H3.76666V0.204109H3.12095V6.98864e-06ZM3.87427 6.98864e-06H4.51998V0.204109H3.87427V6.98864e-06ZM4.6276 6.98864e-06H5.2733V0.204109H4.6276V6.98864e-06ZM5.38092 6.98864e-06H6.02663V0.204109H5.38092V6.98864e-06ZM6.13424 6.98864e-06H6.77995V0.204109H6.13424V6.98864e-06ZM6.88757 6.98864e-06H7.53327V0.204109H6.88757V6.98864e-06ZM7.64089 6.98864e-06H8.28659V0.204109H7.64089V6.98864e-06ZM8.39421 6.98864e-06H9.03992V0.204109H8.39421V6.98864e-06ZM9.14753 6.98864e-06H9.79324V0.204109H9.14753V6.98864e-06ZM9.90086 6.98864e-06H10.5466V0.204109H9.90086V6.98864e-06ZM10.6542 6.98864e-06H11.2999V0.204109H10.6542V6.98864e-06ZM11.4075 6.98864e-06H12.0532V0.204109H11.4075V6.98864e-06ZM12.1608 6.98864e-06H12.8065V0.204109H12.1608V6.98864e-06ZM12.9141 6.98864e-06H13.5599V0.204109H12.9141V6.98864e-06ZM13.6675 6.98864e-06H14.3132V0.204109H13.6675V6.98864e-06ZM14.4208 6.98864e-06H15.0665V0.204109H14.4208V6.98864e-06ZM15.1741 6.98864e-06H15.8198V0.204109H15.1741V6.98864e-06ZM15.9274 6.98864e-06H16.0857V0.666297H15.8705V0.102058H15.9781V0.204109H15.9274V6.98864e-06ZM16.0857 0.768347V1.38065H15.8705V0.768347H16.0857ZM16.0857 1.48271V2.09501H15.8705V1.48271H16.0857ZM16.0857 2.19706V2.80937H15.8705V2.19706H16.0857ZM16.0857 2.91142V3.52373H15.8705V2.91142H16.0857ZM16.0857 3.62578V4.23808H15.8705V3.62578H16.0857ZM16.0857 4.34014V4.95244H15.8705V4.34014H16.0857ZM16.0857 5.05449V5.6668H15.8705V5.05449H16.0857ZM16.0857 5.76885V6.38116H15.8705V5.76885H16.0857ZM16.0857 6.48321V7.09552H15.8705V6.48321H16.0857ZM16.0857 7.19757V7.80987H15.8705V7.19757H16.0857ZM16.0857 7.91193V8.52423H15.8705V7.91193H16.0857ZM16.0857 8.62628V9.23859H15.8705V8.62628H16.0857ZM16.0857 9.34064V9.83009H15.7409V9.62598H15.9781V9.72803H15.8705V9.34064H16.0857ZM15.6333 9.83009H14.9876V9.62598H15.6333V9.83009ZM14.88 9.83009H14.2343V9.62598H14.88V9.83009ZM14.1267 9.83009H13.481V9.62598H14.1267V9.83009ZM13.3734 9.83009H12.7277V9.62598H13.3734V9.83009ZM12.62 9.83009H11.9743V9.62598H12.62V9.83009ZM11.8667 9.83009H11.221V9.62598H11.8667V9.83009ZM11.1134 9.83009H10.4677V9.62598H11.1134V9.83009ZM10.3601 9.83009H9.71437V9.62598H10.3601V9.83009ZM9.60675 9.83009H8.96104V9.62598H9.60675V9.83009ZM8.85343 9.83009H8.20772V9.62598H8.85343V9.83009ZM8.1001 9.83009H7.4544V9.62598H8.1001V9.83009ZM7.34678 9.83009H6.70108V9.62598H7.34678V9.83009ZM6.59346 9.83009H5.94775V9.62598H6.59346V9.83009ZM5.84013 9.83009H5.19443V9.62598H5.84013V9.83009ZM5.08681 9.83009H4.44111V9.62598H5.08681V9.83009ZM4.33349 9.83009H3.68778V9.62598H4.33349V9.83009ZM3.58017 9.83009H2.93446V9.62598H3.58017V9.83009ZM2.82684 9.83009H2.18114V9.62598H2.82684V9.83009ZM2.07352 9.83009H1.42782V9.62598H2.07352V9.83009ZM1.3202 9.83009H0.674493V9.62598H1.3202V9.83009ZM0.566874 9.83009H4.34816e-05V9.55119H0.215279V9.72803H0.107661V9.62598H0.566874V9.83009ZM4.34816e-05 9.44914V8.83683H0.215279V9.44914H4.34816e-05ZM4.34816e-05 8.73478V8.12247H0.215279V8.73478H4.34816e-05ZM4.34816e-05 8.02042V7.40812H0.215279V8.02042H4.34816e-05ZM4.34816e-05 7.30607V6.69376H0.215279V7.30607H4.34816e-05ZM4.34816e-05 6.59171V5.9794H0.215279V6.59171H4.34816e-05ZM4.34816e-05 5.87735V5.26504H0.215279V5.87735H4.34816e-05ZM4.34816e-05 5.16299V4.55069H0.215279V5.16299H4.34816e-05ZM4.34816e-05 4.44864V3.83633H0.215279V4.44864H4.34816e-05ZM4.34816e-05 3.73428V3.12197H0.215279V3.73428H4.34816e-05ZM4.34816e-05 3.01992V2.40761H0.215279V3.01992H4.34816e-05ZM4.34816e-05 2.30556V1.69325H0.215279V2.30556H4.34816e-05ZM4.34816e-05 1.59121V0.978898H0.215279V1.59121H4.34816e-05ZM4.34816e-05 0.876845V0.264541H0.215279V0.876845H4.34816e-05ZM4.34816e-05 0.162488V6.98864e-06H0.753366V0.204109H0.107661V0.102058H0.215279V0.162488H4.34816e-05Z" fill="var(--fill-0, #6E5A00)"/>
</g>
</svg>
